<svg xmlns="http://www.w3.org/2000/svg" width="25" height="25" viewBox="0 0 25 25">
  <g id="all" transform="translate(0 0)">
    <path id="Path_1" data-name="Path 1" d="M22.656,25H2.344A2.347,2.347,0,0,1,0,22.656V2.344A2.347,2.347,0,0,1,2.344,0H22.656A2.347,2.347,0,0,1,25,2.344V22.656A2.347,2.347,0,0,1,22.656,25ZM2.344,1.563a.782.782,0,0,0-.781.781V22.656a.782.782,0,0,0,.781.781H22.656a.782.782,0,0,0,.781-.781V2.344a.782.782,0,0,0-.781-.781Zm0,0" fill="#fff"/>
    <path id="Path_2" data-name="Path 2" d="M24.219,241.563H.781a.781.781,0,1,1,0-1.562H24.219a.782.782,0,0,1,0,1.563Zm0,0" transform="translate(0 -228.281)" fill="#fff"/>
    <path id="Path_3" data-name="Path 3" d="M240.781,25a.782.782,0,0,1-.781-.781V.781a.782.782,0,0,1,1.563,0V24.219a.782.782,0,0,1-.782.781Zm0,0" transform="translate(-228.281)" fill="#fff"/>
  </g>
</svg>
