<?xml version="1.0" encoding="utf-8"?>
<!-- Generator: Adobe Illustrator 22.0.1, SVG Export Plug-In . SVG Version: 6.00 Build 0)  -->
<svg version="1.1" id="Layer_1" xmlns="http://www.w3.org/2000/svg" xmlns:xlink="http://www.w3.org/1999/xlink" x="0px" y="0px"
	 viewBox="0 0 23.6 23.6" style="enable-background:new 0 0 23.6 23.6;" xml:space="preserve">
<style type="text/css">
	.st0{fill:#003265;}
</style>
<path class="st0" d="M21.2,0H2.5C1.1,0,0,1.1,0,2.5v18.7c0,1.4,1.1,2.5,2.5,2.5h18.7c1.4,0,2.5-1.1,2.5-2.5V2.5
	C23.6,1.1,22.5,0,21.2,0z M21.6,2.5v8.4h-8.9V2h8.4C21.4,2,21.6,2.2,21.6,2.5L21.6,2.5z M2.5,2h8.4v8.9H2V2.5C2,2.2,2.2,2,2.5,2z
	 M2,21.2v-8.4h8.9v8.9H2.5C2.2,21.6,2,21.4,2,21.2z M21.2,21.6h-8.4v-8.9h8.9v8.4C21.6,21.4,21.4,21.6,21.2,21.6L21.2,21.6z"/>
</svg>
