<svg xmlns="http://www.w3.org/2000/svg" width="26" height="26" viewBox="0 0 26 26"><defs><style>.a{opacity:0.538;}.b{fill:#003265;}.c{fill:none;}</style></defs><g class="a" transform="translate(0.251)"><g transform="translate(3.243 3.507)"><path class="b" d="M28.868,62.5h-2.9a.38.38,0,1,0,0,.761h2.9a.38.38,0,1,0,0-.761Z" transform="translate(-22.062 -49.948)"/><path class="b" d="M30.923,26.752l-3.073-3.072a4.807,4.807,0,0,0-.86-6.553V14.014A1.017,1.017,0,0,0,25.977,13H12.685a1.017,1.017,0,0,0-1.014,1.014V30.75a1.017,1.017,0,0,0,1.014,1.014H25.978a1.017,1.017,0,0,0,1.014-1.014V24.613l3.035,3.035a.634.634,0,1,0,.9-.9ZM27.5,20.86a3.546,3.546,0,0,1-5.569,2.916H23.7a.38.38,0,0,0,0-.761H21.135a3.529,3.529,0,0,1-.715-1.775H23.7a.38.38,0,0,0,0-.761H20.42a3.527,3.527,0,0,1,.715-1.775H23.7a.38.38,0,0,0,0-.761H21.93A3.546,3.546,0,0,1,27.5,20.86Zm-14.56-6.593H25.723v2.117a4.8,4.8,0,0,0-5.6,1.56H15.581a.38.38,0,0,0,0,.761h4.063a4.781,4.781,0,0,0-.494,1.775H15.581a.38.38,0,0,0,0,.761H19.15a4.781,4.781,0,0,0,.494,1.775H15.581a.38.38,0,0,0,0,.761H20.12a4.8,4.8,0,0,0,5.6,1.56v1.939l-.338-.338a.19.19,0,0,0-.269.269l.608.607v1.222l-1.268-1.267a.19.19,0,1,0-.269.269l1.537,1.536V30.5h-.3l-1.4-1.4a.19.19,0,0,0-.269.269L24.886,30.5H23.664l-.527-.527a.19.19,0,0,0-.269.269l.258.258H12.939Z" transform="translate(-11.671 -13)"/><path class="b" d="M67.98,39.515a.38.38,0,0,0-.253.475,2.176,2.176,0,0,1,0,1.3.38.38,0,0,0,.251.476.376.376,0,0,0,.112.017.381.381,0,0,0,.363-.268,2.937,2.937,0,0,0,0-1.745A.38.38,0,0,0,67.98,39.515Z" transform="translate(-53.499 -32.779)"/></g><rect class="c" width="26" height="26" transform="translate(-0.251)"/></g></svg>