<svg xmlns="http://www.w3.org/2000/svg" width="26" height="26" viewBox="0 0 26 26"><defs><style>.a{opacity:0.538;}.b{fill:#003265;}.c{fill:none;}</style></defs><g class="a" transform="translate(-0.027)"><g transform="translate(3.578 3.507)"><g transform="translate(0)"><path class="b" d="M6.1,11.255a1.639,1.639,0,1,0-2.239-.6A1.639,1.639,0,0,0,6.1,11.255Zm1.512.886a3.279,3.279,0,1,1,.008-4.6l5.857-3.381a3.278,3.278,0,1,1,.82,1.419L8.438,8.957a3.275,3.275,0,0,1,0,1.766l5.82,3.36a3.278,3.278,0,1,1-.82,1.419L7.611,12.14ZM17.454,4.7a1.639,1.639,0,1,0-2.239-.6A1.639,1.639,0,0,0,17.454,4.7ZM15.775,17.8a1.639,1.639,0,1,0-.6-2.239A1.639,1.639,0,0,0,15.775,17.8Z" transform="translate(-2 0)"/></g></g><rect class="c" width="26" height="26" transform="translate(0.027)"/></g></svg>