<svg xmlns="http://www.w3.org/2000/svg" width="26" height="26" viewBox="0 0 26 26"><defs><style>.a{opacity:0.538;}.b{fill:#003265;stroke:#003265;stroke-width:0.4px;}.c{fill:none;}</style></defs><g class="a" transform="translate(0.492)"><g transform="translate(2.461 2.655)"><g transform="translate(0 0)"><path class="b" d="M66.837,36.7A1.234,1.234,0,0,0,65.6,37.937a1.248,1.248,0,0,0,1.237,1.237,1.237,1.237,0,0,0,0-2.474Z" transform="translate(-51.968 -29.884)"/><path class="b" d="M46.637,36.7A1.234,1.234,0,0,0,45.4,37.937,1.237,1.237,0,1,0,46.637,36.7Z" transform="translate(-36.312 -29.884)"/><path class="b" d="M26.337,36.7A1.234,1.234,0,0,0,25.1,37.937a1.248,1.248,0,0,0,1.237,1.237,1.237,1.237,0,0,0,0-2.474Z" transform="translate(-20.579 -29.884)"/><path class="b" d="M21.938,6.4H8.284A3.307,3.307,0,0,0,5,9.707v8.908A3.288,3.288,0,0,0,8.284,21.9H14.7l6.951,4.117L21.309,21.9h.652a3.307,3.307,0,0,0,3.307-3.284V9.707A3.346,3.346,0,0,0,21.938,6.4ZM24.3,18.592a2.338,2.338,0,0,1-2.339,2.339H20.274l.27,3.307-5.579-3.284H8.284a2.338,2.338,0,0,1-2.339-2.339V9.707A2.338,2.338,0,0,1,8.284,7.367H21.938a2.338,2.338,0,0,1,2.339,2.339v8.885Z" transform="translate(-5 -6.4)"/></g></g><rect class="c" width="26" height="26" transform="translate(-0.492)"/></g></svg>