<svg xmlns="http://www.w3.org/2000/svg" width="26" height="26" viewBox="0 0 26 26"><defs><style>.a{opacity:0.538;}.b{fill:#003265;}.c{fill:none;}</style></defs><g class="a" transform="translate(0.213)"><g transform="translate(2.785 2.79)"><path class="b" d="M36.2,27.785a4.73,4.73,0,1,0-6.245,0A7.543,7.543,0,0,0,25.5,34.679c0,.9.464,2.133,2.69,2.937a14.251,14.251,0,0,0,4.884.742c5.6,0,7.574-1.979,7.574-3.679A7.543,7.543,0,0,0,36.2,27.785Zm-3.122-6.43A2.875,2.875,0,1,1,30.2,24.23a2.875,2.875,0,0,1,2.875-2.875Zm0,15.148c-3.37,0-5.719-.958-5.719-1.824a5.719,5.719,0,1,1,11.438,0C38.793,35.545,36.444,36.5,33.074,36.5Z" transform="translate(-25.5 -18.881)"/><path class="b" d="M73.947,19.694H72.679V18.426a.927.927,0,0,0-.927-.927.9.9,0,0,0-.927.927v1.267h-1.3a.927.927,0,0,0-.927.927.9.9,0,0,0,.927.927h1.3v1.3a.9.9,0,0,0,.927.927.927.927,0,0,0,.927-.927v-1.3h1.267a.9.9,0,0,0,.927-.927A.927.927,0,0,0,73.947,19.694Z" transform="translate(-55.275 -17.498)"/></g><rect class="c" width="26" height="26" transform="translate(-0.213)"/></g></svg>