<svg xmlns="http://www.w3.org/2000/svg" width="26" height="26" viewBox="0 0 26 26"><defs><style>.a{opacity:0.538;}.b{fill:#003265;stroke:#003265;stroke-width:0.4px;}.c{fill:none;}</style></defs><g class="a" transform="translate(-0.268)"><g transform="translate(2.349 2.456)"><g transform="translate(0 0)"><path class="b" d="M8.995,13.814a.419.419,0,0,0,0-.838H7.943a.5.5,0,0,0-.055,0,.126.126,0,0,1-.029,0A.335.335,0,0,0,7.815,13l-.035.011a.435.435,0,0,0-.108.071.157.157,0,0,0-.044.044l-.033.04,0,0L5.638,16.169V13.395a.419.419,0,0,0-.419-.419H4.6a1.259,1.259,0,0,1-1.257-1.257V4.6A1.259,1.259,0,0,1,4.6,3.338h9.219A1.259,1.259,0,0,1,15.071,4.6V7.738a.419.419,0,1,0,.838,0V4.6a2.1,2.1,0,0,0-2.1-2.1H4.6A2.1,2.1,0,0,0,2.5,4.6v7.123a2.1,2.1,0,0,0,2.1,2.1H4.8v2.358a.839.839,0,0,0,1.542.457l1.83-2.814Z" transform="translate(-2.5 -2.5)"/><path class="b" d="M48.014,31H38.8a2.1,2.1,0,0,0-2.1,2.1v7.123a2.1,2.1,0,0,0,2.1,2.1h5.139l1.828,2.814a.834.834,0,0,0,.7.382.85.85,0,0,0,.243-.035.832.832,0,0,0,.6-.8V42.314h.71a2.1,2.1,0,0,0,2.1-2.1V33.1A2.1,2.1,0,0,0,48.014,31Zm1.257,9.219a1.259,1.259,0,0,1-1.257,1.257H46.887a.419.419,0,0,0-.419.419v2.777l-1.954-3.006,0,0a.382.382,0,0,0-.037-.046.059.059,0,0,0-.015-.018.522.522,0,0,0-.135-.09l-.013,0a.377.377,0,0,0-.066-.02c-.007,0-.011,0-.018,0a.337.337,0,0,0-.066-.007H38.8a1.259,1.259,0,0,1-1.257-1.257V33.1A1.259,1.259,0,0,1,38.8,31.838h9.219A1.259,1.259,0,0,1,49.271,33.1Z" transform="translate(-29.158 -24.715)"/><path class="b" d="M76.864,50.95H74.939a.419.419,0,1,0,0,.838h1.925a.419.419,0,1,0,0-.838Z" transform="translate(-59.865 -41.493)"/><path class="b" d="M54.75,51.369a.419.419,0,0,0,.419.419h2.893a.419.419,0,1,0,0-.838H55.169A.419.419,0,0,0,54.75,51.369Z" transform="translate(-44.455 -41.493)"/><path class="b" d="M61.454,59.5H55.169a.419.419,0,0,0,0,.838h6.285a.419.419,0,1,0,0-.838Z" transform="translate(-44.455 -48.157)"/><path class="b" d="M66.694,68.05H64.579a.419.419,0,0,0,0,.838h2.115a.419.419,0,0,0,0-.838Z" transform="translate(-51.789 -54.822)"/><path class="b" d="M55.778,68.05h-.609a.419.419,0,0,0,0,.838h.609a.419.419,0,0,0,0-.838Z" transform="translate(-44.455 -54.822)"/><path class="b" d="M19.654,12.95H13.369a.419.419,0,0,0,0,.838h6.285a.419.419,0,1,0,0-.838Z" transform="translate(-10.645 -10.645)"/><path class="b" d="M29.661,21.919a.419.419,0,0,0-.419-.419H25.669a.419.419,0,1,0,0,.838h3.573A.419.419,0,0,0,29.661,21.919Z" transform="translate(-20.233 -17.31)"/><path class="b" d="M13.369,22.338h1.246a.419.419,0,1,0,0-.838H13.369a.419.419,0,1,0,0,.838Z" transform="translate(-10.645 -17.31)"/><path class="b" d="M13.369,30.888H16.3a.419.419,0,0,0,0-.838H13.369a.419.419,0,1,0,0,.838Z" transform="translate(-10.645 -23.974)"/></g></g><rect class="c" width="26" height="26" transform="translate(0.268)"/></g></svg>