<?xml version="1.0" encoding="utf-8"?>
<!-- Generator: Adobe Illustrator 22.0.0, SVG Export Plug-In . SVG Version: 6.00 Build 0)  -->
<svg version="1.1" id="Layer_1" xmlns="http://www.w3.org/2000/svg" xmlns:xlink="http://www.w3.org/1999/xlink" x="0px" y="0px"
	 viewBox="0 0 106.5 94" style="enable-background:new 0 0 106.5 94;" xml:space="preserve">
<style type="text/css">
	.st0{fill:#F9A31A;}
	.st1{fill:#F05856;}
	.st2{fill:#FFFFFF;}
</style>
<title>TXF logo_small</title>
<g>
	<polygon class="st0" points="49.2,30.6 43.7,30.6 38.3,30.6 38.3,36.1 38.3,41.5 43.7,47 49.2,47 54.6,47 54.6,41.5 54.6,36.1 	"/>
	<polygon class="st1" points="65.5,30.6 60.1,30.6 54.6,36.1 54.6,41.5 54.6,47 49.2,47 43.7,47 38.3,52.4 38.3,57.9 38.3,63.3 
		43.7,63.3 49.2,63.3 54.6,57.9 60.1,63.3 65.5,63.3 71,63.3 71,57.9 71,52.4 65.5,47 71,41.5 71,36.1 71,30.6 	"/>
	<path class="st2" d="M24.8,54.7l1.5-1.8V39.7H24l-2.5,3.5h-0.1v-4h13.3v4h-0.1L32,39.7h-2.2v13.2l1.5,1.8v0.2h-6.6L24.8,54.7z"/>
	<path class="st2" d="M73.3,54.7l1.5-1.8V41.1l-1.5-1.8v-0.2h11.8v4.3H85l-2.6-3.7h-4v6.9h2.6l1.9-1.9H83v4.6h-0.2l-1.9-2.1h-2.6
		v5.7l1.7,1.8v0.2h-6.8L73.3,54.7z"/>
</g>
</svg>
