<svg xmlns="http://www.w3.org/2000/svg" width="18.063" height="20.895" viewBox="0 0 18.063 20.895"><defs><style>.a{fill:#003265;}</style></defs><g transform="translate(-3)"><path class="a" d="M18.8,22.059H5.258A2.127,2.127,0,0,1,3,20.1V10.959A2.127,2.127,0,0,1,5.258,9H18.8a2.127,2.127,0,0,1,2.258,1.959V20.1A2.127,2.127,0,0,1,18.8,22.059ZM5.258,10.306a.709.709,0,0,0-.753.653V20.1a.709.709,0,0,0,.753.653H18.8a.709.709,0,0,0,.753-.653V10.959a.709.709,0,0,0-.753-.653Z" transform="translate(0 -1.165)"/><path class="a" d="M18.036,9.141a.74.74,0,0,1-.8-.653V5.224c0-2.16-2.16-3.918-4.815-3.918S7.6,3.064,7.6,5.224V8.488a.74.74,0,0,1-.8.653A.74.74,0,0,1,6,8.488V5.224C6,2.343,8.879,0,12.419,0s6.419,2.343,6.419,5.224V8.488A.74.74,0,0,1,18.036,9.141Z" transform="translate(-0.388)"/><path class="a" d="M11.741,16.482a1.741,1.741,0,1,1,1.741-1.741A1.743,1.743,0,0,1,11.741,16.482Zm0-2.177a.435.435,0,1,0,.435.435A.436.436,0,0,0,11.741,14.306Z" transform="translate(0.29 -1.682)"/><path class="a" d="M11.9,19.45a.653.653,0,0,1-.653-.653V16.4a.653.653,0,0,1,1.306,0V18.8A.653.653,0,0,1,11.9,19.45Z" transform="translate(0.128 -2.038)"/></g></svg>