<?xml version="1.0" encoding="utf-8"?>
<!-- Generator: Adobe Illustrator 22.0.1, SVG Export Plug-In . SVG Version: 6.00 Build 0)  -->
<svg version="1.1" id="Layer_1" xmlns="http://www.w3.org/2000/svg" xmlns:xlink="http://www.w3.org/1999/xlink" x="0px" y="0px"
	 viewBox="0 0 24.4 24" style="enable-background:new 0 0 24.4 24;" xml:space="preserve">
<style type="text/css">
	.st0{fill:#FFFFFF;}
</style>
<g transform="translate(0 0)">
	<path class="st0" d="M24.3,19l-1.4-4.1C25.4,9.7,23.3,3.5,18.2,1c-1.4-0.7-2.8-1-4.3-1C8.1-0.1,3.4,4.5,3.3,10.1c0,0,0,0,0,0
		c-2.9,2.1-3.8,6-2.3,9.2l-1,2.8C-0.2,23,0.2,23.7,0.9,24C1,24,1.2,24,1.3,24c0.1,0,0.3,0,0.4-0.1l2.8-1c1,0.5,2.1,0.7,3.2,0.7h0
		c2.4,0,4.7-1.1,6.1-3.1c1.5,0,2.9-0.4,4.3-1l4.1,1.4c0.2,0.1,0.3,0.1,0.5,0.1c0.9,0,1.6-0.7,1.6-1.6C24.4,19.3,24.4,19.1,24.3,19
		L24.3,19z M7.8,22.3L7.8,22.3c-1,0-2-0.2-2.8-0.7c-0.2-0.1-0.4-0.1-0.6,0l-2.9,1l1-2.9c0.1-0.2,0-0.4,0-0.6c-1.2-2.3-0.8-5.1,1-7
		c0.7,4.4,4.2,7.8,8.6,8.5C11,21.6,9.4,22.3,7.8,22.3z M22.9,19.6c0,0-0.1,0.1-0.1,0l-4.4-1.5c-0.2-0.1-0.4,0-0.6,0
		c-1.3,0.7-2.7,1-4.1,1h0c-4.8,0-8.8-3.9-8.9-8.7c-0.1-4.9,3.8-8.9,8.7-9c0.1,0,0.2,0,0.3,0c4.9,0.1,8.8,4.1,8.7,9
		c0,1.4-0.4,2.8-1,4c-0.1,0.2-0.1,0.4,0,0.6l1.5,4.4C23,19.5,23,19.6,22.9,19.6z"/>
</g>
<g transform="translate(8.589 6.462)">
	<path class="st0" d="M9.4,0H0.7C0.3,0,0,0.4,0,0.8c0,0.4,0.3,0.7,0.7,0.7h8.7c0.4,0,0.7-0.4,0.7-0.8C10.1,0.3,9.8,0,9.4,0z"/>
</g>
<g transform="translate(8.589 9.451)">
	<path class="st0" d="M9.4,0H0.7C0.3,0,0,0.4,0,0.8c0,0.4,0.3,0.7,0.7,0.7h8.7c0.4,0,0.7-0.4,0.7-0.8C10.1,0.3,9.8,0,9.4,0z"/>
</g>
<g transform="translate(8.589 12.44)">
	<path class="st0" d="M6.1,0H0.7C0.3,0,0,0.3,0,0.7s0.3,0.7,0.7,0.8c0,0,0,0,0.1,0h5.3c0.4,0,0.7-0.4,0.7-0.8C6.7,0.3,6.4,0,6.1,0
		L6.1,0z"/>
</g>
</svg>
