<svg xmlns="http://www.w3.org/2000/svg" width="24.419" height="24.036" viewBox="0 0 24.419 24.036"><defs><style>.a{fill:#003265;}</style></defs><g transform="translate(0 0)"><path class="a" d="M24.331,22.985l-1.418-4.127a10.325,10.325,0,0,0-9.1-14.845A10.314,10.314,0,0,0,3.332,14.191a7.516,7.516,0,0,0-2.281,9.235L.074,26.268a1.343,1.343,0,0,0,1.265,1.779,1.352,1.352,0,0,0,.44-.074L4.622,27a7.548,7.548,0,0,0,3.213.726h.012a7.5,7.5,0,0,0,6.068-3.086,10.347,10.347,0,0,0,4.262-1.043L22.3,25.011a1.607,1.607,0,0,0,.523.088,1.6,1.6,0,0,0,1.5-2.114ZM7.847,26.268H7.837a6.079,6.079,0,0,1-2.823-.7.727.727,0,0,0-.576-.045l-2.915,1,1-2.915a.727.727,0,0,0-.045-.576,6.06,6.06,0,0,1,.988-7.026A10.354,10.354,0,0,0,12.1,24.524,6.044,6.044,0,0,1,7.847,26.268ZM22.922,23.6a.132.132,0,0,1-.146.034l-4.419-1.518a.727.727,0,0,0-.576.045,8.878,8.878,0,0,1-4.123,1.024h-.014a8.9,8.9,0,0,1-8.86-8.717,8.861,8.861,0,0,1,9-9,8.863,8.863,0,0,1,7.693,13,.727.727,0,0,0-.045.576l1.518,4.419A.132.132,0,0,1,22.922,23.6Z" transform="translate(0 -4.011)"/></g><g transform="translate(8.589 6.462)"><path class="a" d="M189.48,139.512h-8.659a.727.727,0,0,0,0,1.453h8.659a.727.727,0,0,0,0-1.453Z" transform="translate(-180.094 -139.512)"/></g><g transform="translate(8.589 9.451)"><path class="a" d="M189.48,202.183h-8.659a.727.727,0,0,0,0,1.453h8.659a.727.727,0,0,0,0-1.453Z" transform="translate(-180.094 -202.183)"/></g><g transform="translate(8.589 12.44)"><path class="a" d="M186.146,264.852H180.82a.727.727,0,1,0,0,1.453h5.326a.727.727,0,0,0,0-1.453Z" transform="translate(-180.093 -264.852)"/></g></svg>