<svg xmlns="http://www.w3.org/2000/svg" width="38" height="32" viewBox="0 0 38 32"><g transform="translate(0 -30.107)"><path d="M35.211,30.107H23.058a.533.533,0,1,0,0,1.065H35.211a1.638,1.638,0,0,1,1.673,1.6V51.4H34.211V35.046a1.638,1.638,0,0,0-1.673-1.6H5.463a1.638,1.638,0,0,0-1.673,1.6V51.4H1.115V32.768a1.638,1.638,0,0,1,1.673-1.6H20.827a.533.533,0,1,0,0-1.065H2.789A2.73,2.73,0,0,0,0,32.768V54.29a2.73,2.73,0,0,0,2.789,2.661H15.052l-.562,4.091H12.508a.533.533,0,1,0,0,1.065H25.492a.533.533,0,1,0,0-1.065H23.51l-.562-4.091h5.91a.533.533,0,1,0,0-1.065H2.789a1.638,1.638,0,0,1-1.673-1.6V52.462H36.885V54.29a1.638,1.638,0,0,1-1.673,1.6H31.089a.533.533,0,1,0,0,1.065h4.122A2.73,2.73,0,0,0,38,54.29V32.768a2.73,2.73,0,0,0-2.789-2.661ZM22.385,61.042h-6.77l.562-4.091h5.646Zm-17.48-26a.546.546,0,0,1,.558-.532H32.537a.546.546,0,0,1,.558.532v2.62H4.9Zm0,3.684H33.1V51.4H30.384V49.024a.545.545,0,0,0-.558-.532H20.335a.545.545,0,0,0-.558.532V51.4H18.223V49.024a.545.545,0,0,0-.558-.532H8.174a.545.545,0,0,0-.558.532V51.4H4.9ZM29.268,51.4H20.893v-1.84h8.375Zm-12.161,0H8.732v-1.84h8.375Z"/><path d="M84.133,102.455a.927.927,0,1,0,.927.927A.928.928,0,0,0,84.133,102.455Z" transform="translate(-77.055 -67.261)"/><path d="M121.176,102.455a.927.927,0,1,0,.927.927A.928.928,0,0,0,121.176,102.455Z" transform="translate(-111.359 -67.261)"/><path d="M158.218,102.455a.927.927,0,1,0,.927.927A.928.928,0,0,0,158.218,102.455Z" transform="translate(-145.662 -67.261)"/><path d="M103.148,183.045h3.834a.609.609,0,0,0,0-1.207h-3.307v-5.3h19.406v5.3H109.091a.609.609,0,0,0,0,1.207h14.518a.569.569,0,0,0,.527-.6v-6.5a.569.569,0,0,0-.527-.6h-20.46a.569.569,0,0,0-.527.6v6.5a.569.569,0,0,0,.527.6Z" transform="translate(-94.379 -135.313)"/></g></svg>