<svg id="Group_1424" data-name="Group 1424" xmlns="http://www.w3.org/2000/svg" width="69.062" height="70.67" viewBox="0 0 69.062 70.67">
  <g id="noun_Add_friends_1143334" data-name="noun_Add friends_1143334" transform="translate(0 11.55)">
    <g id="Group_1423" data-name="Group 1423">
      <path id="Path_10301" data-name="Path 10301" d="M31.455,974.41a15.766,15.766,0,1,0,15.637,15.765A15.741,15.741,0,0,0,31.455,974.41Zm0,5.255a10.51,10.51,0,1,1-10.424,10.51A10.428,10.428,0,0,1,31.455,979.665Zm27.364,7.882a11.824,11.824,0,1,0,11.728,11.824A11.816,11.816,0,0,0,58.82,987.548Zm0,5.255a6.569,6.569,0,1,1-6.515,6.569A6.5,6.5,0,0,1,58.82,992.8Zm-27.364,14.451A23.592,23.592,0,0,0,8,1030.9a2.606,2.606,0,1,0,5.212,0,18.243,18.243,0,1,1,36.485,0,2.606,2.606,0,1,0,5.212,0,23.613,23.613,0,0,0-2.851-11.249,2.63,2.63,0,0,0,.326-.205,12.893,12.893,0,0,1,6.434-1.683A13.045,13.045,0,0,1,71.85,1030.9a2.606,2.606,0,1,0,5.212,0,18.358,18.358,0,0,0-18.243-18.393,18.1,18.1,0,0,0-9,2.381,2.612,2.612,0,0,0-.692.534,23.3,23.3,0,0,0-17.673-8.17Z" transform="translate(-8 -974.41)" fill="#003265"/>
    </g>
  </g>
  <g id="noun_Add_friends_1143334-2" data-name="noun_Add friends_1143334" transform="translate(45.482)">
    <g id="Group_1423-2" data-name="Group 1423">
      <path id="Path_10301-2" data-name="Path 10301" d="M72.281,958.378a2.621,2.621,0,0,0-2.321,2.669v3.941H66.051q-.122-.006-.244,0a2.63,2.63,0,0,0,.244,5.255H69.96v3.941a2.606,2.606,0,1,0,5.213,0v-3.941h3.909a2.628,2.628,0,0,0,0-5.255H75.172v-3.941a2.638,2.638,0,0,0-.846-1.995A2.593,2.593,0,0,0,72.281,958.378Z" transform="translate(-63.319 -958.362)" fill="#ff5242"/>
    </g>
  </g>
</svg>
