<svg id="noun_discussion_3483976" xmlns="http://www.w3.org/2000/svg" width="81.565" height="81.565" viewBox="0 0 81.565 81.565">
  <rect id="Rectangle_756" data-name="Rectangle 756" width="81.565" height="81.565" fill="none"/>
  <path id="Path_10417" data-name="Path 10417" d="M41.721,26.5a7.962,7.962,0,0,1,7.63,7.627c.031,5.186,0,10.37,0,15.556A7.951,7.951,0,0,1,41.726,57.4c-6.584.041-13.473-.821-19.171,1a11.076,11.076,0,0,0-4.761,3.3s-1.836,1.4-3.317.445c-1.378-.891-1.388-2.941-.149-4.293,3.989-4.347,10.2-5.562,16.748-5.6,3.528-.005,7.056.021,10.583,0A2.665,2.665,0,0,0,44.2,49.707c.033-5.184.1-10.367,0-15.548a2.669,2.669,0,0,0-2.511-2.511c-10.331-.193-20.667-.067-31,0A2.641,2.641,0,0,0,8.15,34.231V65.124a2.223,2.223,0,0,1-.281,1.169,2.674,2.674,0,0,1-4.115.651A2.717,2.717,0,0,1,3,65.124V34.213A7.947,7.947,0,0,1,10.625,26.5q15.551-.1,31.1,0Zm-5.245,15.45a2.575,2.575,0,1,0,2.575,2.575A2.576,2.576,0,0,0,36.476,41.948Zm-10.3,0a2.575,2.575,0,1,0,2.575,2.575A2.576,2.576,0,0,0,26.176,41.948Zm-10.3,0a2.575,2.575,0,1,0,2.575,2.575A2.576,2.576,0,0,0,15.875,41.948Z" transform="translate(4.26 6.753)" fill="#003265" fill-rule="evenodd"/>
  <path id="Path_10422" data-name="Path 10422" d="M60.483,3.052a7.93,7.93,0,0,1,7.625,7.715V41.678a2.2,2.2,0,0,1-.278,1.161c-.8,1.589-3.167,1.7-4.447.3A12.289,12.289,0,0,0,55.076,39.1s-3-1.061-2.3-3.324c.729-2.387,4.475-1.949,7.594-.8A16.116,16.116,0,0,1,62.958,36.2c0-8.485.054-16.97,0-25.454A2.667,2.667,0,0,0,60.416,8.2q-15.485-.1-30.968,0a2.641,2.641,0,0,0-2.542,2.583V21.077a2.576,2.576,0,0,1-5.119.4,2.638,2.638,0,0,1-.031-.4V10.767a7.954,7.954,0,0,1,7.625-7.715q15.551-.1,31.1,0ZM34.632,18.5a2.575,2.575,0,1,1-2.575,2.575A2.576,2.576,0,0,1,34.632,18.5Zm10.3,0a2.575,2.575,0,1,1-2.575,2.575A2.576,2.576,0,0,1,44.932,18.5Zm10.3,0a2.575,2.575,0,1,1-2.575,2.575A2.576,2.576,0,0,1,55.233,18.5Z" transform="translate(6.103 4.448)" fill="#ff5242" fill-rule="evenodd"/>
</svg>
