<svg xmlns="http://www.w3.org/2000/svg" width="100.68" height="93.732" viewBox="0 0 100.68 93.732">
  <g id="Group_1597" data-name="Group 1597" transform="translate(-151.803 -196.71)">
    <g id="Group_1591" data-name="Group 1591" transform="matrix(0.819, -0.574, 0.574, 0.819, 143.031, 252.118)">
      <path id="Path_10418" data-name="Path 10418" d="M52.352,23.914,5.75,5.3l5.628,19.1ZM11.325,28.359,5.188,47.4,52.3,27.867ZM3.507.191,63.276,23.98c1.673.573,1.644,2.747-.047,3.558L2.808,52.572A1.994,1.994,0,0,1-.1,50.433L7.569,26.427.534,2.6A2.146,2.146,0,0,1,3.507.191Z" transform="translate(32.107 0.023)" fill="#003265"/>
      <path id="Path_10419" data-name="Path 10419" d="M26.229-.084a2.129,2.129,0,0,1,2.094,1.931,2.115,2.115,0,0,1-2.147,1.981L2.087,4.112A1.874,1.874,0,0,1-.007,2.181,2.108,2.108,0,0,1,2.14.2Z" transform="translate(-0.139 42.57)" fill="#f65144"/>
      <path id="Path_10420" data-name="Path 10420" d="M13.781-.045a1.9,1.9,0,0,1,2.09,2A2.141,2.141,0,0,1,13.728,4.01L2.083,4.152a2.014,2.014,0,0,1-2.09-2A2.018,2.018,0,0,1,2.137.1Z" transform="translate(15.677 26.278)" fill="#f65144"/>
      <path id="Path_10421" data-name="Path 10421" d="M22.615-.073a2,2,0,0,1,2.093,1.954,2.124,2.124,0,0,1-2.146,2l-20.476.32A1.883,1.883,0,0,1-.007,2.252a2,2,0,0,1,2.146-2L15.715.01Z" transform="translate(3.821 9.922)" fill="#f65144"/>
    </g>
  </g>
</svg>
