<svg xmlns="http://www.w3.org/2000/svg" width="756.941" height="818.97" viewBox="0 0 756.941 818.97"><defs><style>.a{opacity:0.369;}.af,.ag,.ah,.ai,.aj,.ak,.b{fill:none;stroke-miterlimit:10;}.b{stroke:#ff5242;stroke-width:60px;opacity:0.148;}.ag,.ah,.ai,.aj,.ak,.b{stroke-linecap:round;}.c{opacity:0.104;}.d{fill:#6e3281;}.e{opacity:0.041;}.f,.g{fill:#003265;}.g{opacity:0.116;}.h{fill:#552e3b;}.i,.k,.o{fill:#b8abd6;}.j{fill:#ddd2f3;}.k{opacity:0.44;}.l{fill:#dbdbdb;}.m{fill:#f9c8c7;}.n{fill:#452775;}.o{opacity:0.14;}.p{fill:#fac28c;}.q{fill:#db9d6a;}.r{fill:#b28560;}.s{opacity:0.07;}.t{fill:#f9fafd;}.u{fill:#a869c5;}.v{fill:#c7cddd;}.w{fill:#e08f8d;}.x{opacity:0.26;}.y{fill:#deecfc;}.z{fill:#635252;}.aa{fill:#bebebe;}.ab,.ac{fill:#d7d1e8;}.ac{opacity:0.19;}.ad{opacity:0.055;}.ae{fill:#ff5242;}.af,.ak{stroke:#e8947e;}.af{stroke-width:0.15px;}.ag{stroke:#6e3281;}.ag,.ah,.ai,.aj,.ak{stroke-width:6px;}.ah{stroke:#edc483;}.ai{stroke:#8aa9fc;}.aj{stroke:#e3707f;}</style></defs><g transform="translate(48.939 -5.727)"><g class="a" transform="translate(-128.117 -61.94)"><path class="b" d="M79.381,355.086c30.938-63.067,113.026-92.281,174.546-62.116,46.067,22.592,83.158,73.5,133.988,70.327,34.959-2.184,63.09-30.356,84.165-59.488s39.582-61.957,69.243-81.349c32.589-21.311,74.463-22.8,111.507-11.961s70.125,32.8,101.344,56.231" transform="translate(39.944 491.405)"/><g class="c" transform="translate(149.735 67.667)"><path class="d" d="M110.993,291.392c-2.132-13.041-6.3-24.751-2.85-37.948,6.872-26.273,28.3-27.051,50.436-23.581,22.61,3.544,42.827,3.5,61.029-12.457,28.173-24.7,28.214-80.255-11.213-92.987-9.131-2.948-19.978,8.31-15.762,17.314,5.7,12.163,15.493,22.655,12.672,36.684-4.649,23.119-25.936,21.827-44.538,19.3-20.992-2.845-39.907-1.5-57.22,12.017-26.713,20.851-35.99,68.92-3.472,88.642,4.506,2.733,11.813-1.5,10.916-6.987Z" transform="translate(-79.348 -123.94)"/></g></g><g transform="translate(21.331 -1.746)"><g transform="translate(105.285 180.746)"><g class="e" transform="translate(0 44.727)"><path class="f" d="M111.566,451.077c-16.65-42.033.924-94.814,39.449-118.474,23.286-14.3,51.4-18.154,76.448-29.078,38.536-16.808,67.7-49.258,102.216-73.263,25.628-17.827,54.8-31.16,85.69-35.684s63.566.194,90.459,16.053c28.55,16.834,49.233,45.53,59.087,77.174s9.333,66,1.525,98.213c-2.984,12.314-7.1,24.558-14.33,34.965S534.217,439.86,521.786,442.3" transform="translate(-105.285 -192.947)"/></g><path class="g" d="M541.145,259.612S109.523,269.426,106.983,270.8c0,0,36.076,58.035,145.613,55.018S545.826,317.559,541.145,259.612Z" transform="translate(-100.757 29.502)"/><path class="h" d="M173.941,274.93c-12.163,4.414-7.893-9.465-8.325-15.36s-.092-12.061-2.526-17.446c-1.943-4.3-5.624-8.087-5.634-12.8-.011-3.585,2.148-6.778,3.054-10.246,1.25-4.773.084-9.869.884-14.737,1.532-9.33,11.21-16.522,20.588-15.3,4.689.612,9.22,3.024,13.9,2.379,5.161-.715,9.033-4.9,13.527-7.537,6.272-3.684,14.425-4.278,20.9-.96s10.836,10.671,10.048,17.9-7.06,13.659-14.323,14.062c-4.241.235-8.333-1.386-12.449-2.434s-8.809-1.437-12.317.957c-4.425,3.017-6.331,9.971-11.665,10.466-2.815.26-5.345-1.525-7.933-2.665s-6.21-1.36-7.68,1.056c-1.213,2-.205,4.535.066,6.855.495,4.249-.506,8.49-4.348,10.364-1.551,11.724,1.991,22.967,5.481,34.269" transform="translate(33.796 -180.746)"/><path class="i" d="M158.506,395.6,125.67,211.927H231.279l39.088,180.194Z" transform="translate(-50.938 -97.62)"/><path class="j" d="M162.01,395.343,127.4,211.927H233.01L272.1,392.121Z" transform="translate(-46.321 -97.62)"/><path class="k" d="M218.784,211.927s-36.516,16.1-46.736,33.4c-8.831,14.939-51.1,102.821-35.427,115.131s119.7,8.391,119.7,8.391l6.764-27.974-81.7-13.989,50.072-44.013Z" transform="translate(-30.946 -97.621)"/><path class="f" d="M267.819,252.959c-.576-1.782-4.623-40.644-45.589-39.687-38.4.9-59.776,3.12-73.156,33l14.268,56.466L166.3,390.1l110.754-3.571Z" transform="translate(11.453 -94.083)"/><path class="f" d="M200.691,216.365a73.988,73.988,0,0,0-25.892,25.61C165.967,256.913,123.707,344.8,139.371,357.1s119.7,8.395,119.7,8.395l6.764-27.974-81.694-13.989L198.4,294.441Z" transform="translate(-23.608 -85.79)"/><path class="f" d="M175.946,215.04s39.122,26.233,79.942,94.492l-16.493,40.4-43.052-54.618Z" transform="translate(83.091 -89.322)"/><path class="l" d="M164.542,268.4h89.646l4.436-7.654-94.082,2.7Z" transform="translate(52.689 32.519)"/><path class="m" d="M173.835,252.148H210.56s22.472,20.023,18.582,20.995-17.611-12.574-17.611-12.574l10.459,23.249s-16.064-2.188-21.281-6.562-10.081-7.783-10.081-7.783l-20.9,1.947Z" transform="translate(66.517 9.604)"/><g transform="translate(173.298 131.119)"><path class="n" d="M155.763,216.732a5.524,5.524,0,0,1,.971-.15,6.075,6.075,0,0,1,1.191-.062,9.761,9.761,0,0,1,1.628.1,16.6,16.6,0,0,1,9.2,4.564,21.6,21.6,0,0,1,4.326,5.726,22.885,22.885,0,0,1,2.379,7.889c.759,5.8-.3,12.233-2.156,18.626a152.458,152.458,0,0,1-13.179,31.417c-2.141,3.809-4.021,6.8-5.382,8.831-.664,1.023-1.221,1.789-1.587,2.317a5.586,5.586,0,0,1-.594.781,5.642,5.642,0,0,1,.488-.854l1.485-2.379c1.294-2.064,3.109-5.088,5.195-8.912a160.951,160.951,0,0,0,12.959-31.38c1.844-6.349,2.9-12.688,2.185-18.373a21.649,21.649,0,0,0-6.43-13.362,16.646,16.646,0,0,0-8.919-4.641A22.879,22.879,0,0,0,155.763,216.732Z" transform="translate(-152.558 -216.513)"/></g><g transform="translate(273.811 154.378)"><path class="n" d="M179.986,222.858a4.055,4.055,0,0,1,.169.777c.092.579.213,1.323.363,2.243.319,2.024.763,4.821,1.3,8.241,1.118,7.035,2.636,16.614,4.311,27.2,1.624,10.635,2.991,20.28,3.769,27.293.392,3.5.642,6.349.777,8.318.051.931.088,1.683.117,2.269a3.727,3.727,0,0,1,0,.792,3.583,3.583,0,0,1-.125-.784c-.062-.583-.139-1.331-.235-2.258-.213-1.958-.532-4.788-.982-8.281-.891-6.991-2.328-16.621-3.952-27.252s-3.131-20.25-4.124-27.23c-.495-3.49-.869-6.32-1.1-8.278-.1-.927-.18-1.675-.242-2.258A3.722,3.722,0,0,1,179.986,222.858Z" transform="translate(-179.976 -222.858)"/></g><g transform="translate(114.828 236.931)"><path class="o" d="M180.9,270.347c0,1.972-9.165,3.567-20.47,3.567s-20.474-1.595-20.474-3.567,9.168-3.563,20.474-3.563S180.9,268.379,180.9,270.347Z" transform="translate(-127.677 -188.309)"/><path class="p" d="M176.742,259.644s-17.677-6.69-34.162,0v3.82s-5.972-.476-5.972,5.253,1.91,13.38,9.557,16.489l3.343,10.51s14.334,3.582,21.739,0c0,0,1.679-5.5,3.1-11.229C175.386,280.36,176.742,259.644,176.742,259.644Zm-37.223,11.188c-.4-4.828,3.571-3.255,3.571-3.255l2.1,13.655S140.256,279.781,139.519,270.833Z" transform="translate(-136.608 -215.269)"/><path class="q" d="M168.122,258.77s-15.5-3.732-29.173.128C138.949,258.9,152.975,270.644,168.122,258.77Z" transform="translate(-130.367 -213.995)"/><g transform="translate(7.892 60.614)"><path class="r" d="M170.182,261.924a5.032,5.032,0,0,1-1.136.554,31.905,31.905,0,0,1-3.252,1.151,44.286,44.286,0,0,1-22.542.748,30.492,30.492,0,0,1-3.318-.935,4.694,4.694,0,0,1-1.173-.477c.033-.11,1.749.422,4.586.968a50.065,50.065,0,0,0,22.325-.741C168.462,262.459,170.141,261.817,170.182,261.924Z" transform="translate(-138.761 -261.912)"/></g><g transform="translate(7.613 57.292)"><path class="r" d="M169.607,261.015a4.621,4.621,0,0,1-1.092.627,26.082,26.082,0,0,1-3.153,1.338,37.55,37.55,0,0,1-22.292.887,26.814,26.814,0,0,1-3.248-1.078,4.717,4.717,0,0,1-1.136-.539c.04-.11,1.7.528,4.494,1.18a41.42,41.42,0,0,0,22.039-.883C167.947,261.678,169.56,260.912,169.607,261.015Z" transform="translate(-138.685 -261.006)"/></g><g class="s" transform="translate(8.311)"><path class="t" d="M139.711,290.269c-1.342-1.51-.623-4.029.861-5.4s3.5-1.98,5.319-2.852,3.644-2.258,4-4.249c.671-3.816-4.355-7.2-3.083-10.858,1.2-3.439,6.588-3.193,8.67-6.184,2.28-3.277-.821-7.977.59-11.712.971-2.57,4.014-3.963,6.731-3.571a10.093,10.093,0,0,1,6.6,4.531,27.536,27.536,0,0,1,3.233,7.537c1.056,3.424,1.983,7.317.224,10.437-.891,1.58-2.478,3.222-1.793,4.9.418,1.019,1.529,1.54,2.32,2.3,1.947,1.9,1.727,5.11.825,7.676a19.707,19.707,0,0,1-35.328,3.856" transform="translate(-138.875 -245.377)"/></g></g><g transform="translate(260.278 160.752)"><path class="u" d="M181.631,224.6c.147.1-.931,1.881-2.4,3.977s-2.786,3.706-2.929,3.607.931-1.884,2.4-3.977S181.488,224.5,181.631,224.6Z" transform="translate(-176.285 -224.597)"/></g><path class="t" d="M161.98,214.933s22.571,58.522,38.331,78.3c0,0,6.617-57.719,0-78.556C200.311,214.673,170.078,211.047,161.98,214.933Z" transform="translate(45.859 -94.398)"/><path class="m" d="M169.812,190.747l-1.518,34.716s-10.664-.132-10.657,9.656c.015,12.3,11.562,10.239,11.562,10.239s-2.387,23.473,29.815,25.408c37.671,2.266,29.661-56.612,28.205-84.249Z" transform="translate(34.284 -165.361)"/><path class="m" d="M197.933,202.116l-1.87,42.334a16.4,16.4,0,0,1-23.729,13.941c-.136-.07-.275-.136-.411-.2A16.419,16.419,0,0,1,162.88,243c.455-14.872.612-40.508.612-40.508Z" transform="translate(48.237 -123.776)"/><g transform="translate(204.843 120.993)"><path class="n" d="M202.49,291.589a5.844,5.844,0,0,1-.759-.638c-.488-.433-1.188-1.089-2.082-1.939-1.789-1.7-4.318-4.227-7.4-7.379s-6.727-6.943-10.932-10.976a80.9,80.9,0,0,1-6.445-6.544,19.181,19.181,0,0,1-4.436-8.824,11.775,11.775,0,0,1,1.118-7.841l.484.392a4.551,4.551,0,0,1-4.348.715,6.474,6.474,0,0,1-3.431-2.529c-1.576-2.386-1.738-5.158-1.9-7.588-.264-4.9-.5-9.275-.7-12.952-.169-3.611-.312-6.525-.411-8.607-.033-.968-.062-1.738-.081-2.321a3.752,3.752,0,0,1,.011-.806,4.311,4.311,0,0,1,.1.8q.072.874.194,2.313c.147,2.079.348,4.993.6,8.6.238,3.677.517,8.047.832,12.944.172,2.416.374,5.092,1.848,7.284a5.842,5.842,0,0,0,3.109,2.273,3.932,3.932,0,0,0,3.754-.6l1.4-1.224-.913,1.617a11.156,11.156,0,0,0-1.041,7.423,18.671,18.671,0,0,0,4.289,8.534,82.793,82.793,0,0,0,6.371,6.518c4.194,4.069,7.8,7.9,10.847,11.086s5.517,5.759,7.251,7.519l1.994,2.02A5.685,5.685,0,0,1,202.49,291.589Z" transform="translate(-161.163 -213.751)"/></g><g transform="translate(246.169 120.277)"><path class="n" d="M172.437,213.557a2.462,2.462,0,0,1,.488.381c.312.26.759.667,1.316,1.213a33.449,33.449,0,0,1,4.271,5.143,38.519,38.519,0,0,1,2.379,4.047,20.128,20.128,0,0,1,1.972,5.114,15.576,15.576,0,0,1,.191,6.148,11.457,11.457,0,0,1-2.969,6.027l.011-.425a9.7,9.7,0,0,1,2.185,4.56,18.88,18.88,0,0,1,.194,5.25c-.268,2.925-.872,5.693-1.345,8.391-.506,2.691-1.023,5.279-1.543,7.742-1.037,4.927-2.09,9.337-3.021,13.025s-1.76,6.654-2.357,8.7c-.293.968-.528,1.745-.708,2.343a4.6,4.6,0,0,1-.29.806,4.22,4.22,0,0,1,.165-.839c.15-.609.348-1.4.594-2.379.521-2.06,1.279-5.041,2.156-8.74s1.881-8.113,2.885-13.032c.5-2.464,1.008-5.052,1.5-7.739.466-2.694,1.059-5.477,1.323-8.333a18.228,18.228,0,0,0-.18-5.07,9.1,9.1,0,0,0-2.024-4.271l-.191-.216.2-.209a10.87,10.87,0,0,0,2.834-5.693,15.222,15.222,0,0,0-.136-5.931,20.05,20.05,0,0,0-1.87-5.015,39.579,39.579,0,0,0-2.287-4.04,36.855,36.855,0,0,0-4.095-5.213l-1.235-1.283A2.581,2.581,0,0,1,172.437,213.557Z" transform="translate(-172.436 -213.556)"/></g><g transform="translate(245.614 199.058)"><path class="n" d="M176.6,297.74c-.172.011-1.279-14.015-2.464-31.321s-2.005-31.358-1.829-31.373,1.283,14.011,2.467,31.325S176.781,297.729,176.6,297.74Z" transform="translate(-172.285 -235.046)"/></g><g transform="translate(252.172 215.267)"><path class="n" d="M177.471,240.026c-.007-.033.29-.147.851-.088a3.333,3.333,0,0,1,2.082,1.074,3.406,3.406,0,0,1,.642,3.413A3.469,3.469,0,0,1,177.5,246.7a3.779,3.779,0,0,1-3.241-2.713,3.74,3.74,0,0,1,.546-3.439,2.893,2.893,0,0,1,2.086-1.081c.568-.018.85.143.839.176-.011.051-.308-.018-.814.07a2.813,2.813,0,0,0-1.752,1.111,3.35,3.35,0,0,0-.348,2.977,3.247,3.247,0,0,0,2.731,2.262,2.915,2.915,0,0,0,2.94-1.837,2.994,2.994,0,0,0-.429-2.922,3.371,3.371,0,0,0-1.785-1.122C177.775,240.052,177.474,240.081,177.471,240.026Z" transform="translate(-174.073 -239.468)"/></g><g transform="translate(254.168 240.151)"><path class="n" d="M178.016,246.814c-.007-.033.293-.147.85-.088a3.367,3.367,0,0,1,2.086,1.074,3.408,3.408,0,0,1,.638,3.413,3.465,3.465,0,0,1-3.538,2.276,3.792,3.792,0,0,1-3.248-2.713,3.753,3.753,0,0,1,.55-3.439,2.9,2.9,0,0,1,2.086-1.081c.568-.018.85.143.839.176-.011.051-.308-.018-.814.073a2.782,2.782,0,0,0-1.749,1.107,3.345,3.345,0,0,0-.352,2.98,3.248,3.248,0,0,0,2.731,2.258,2.907,2.907,0,0,0,2.94-1.837,3,3,0,0,0-.429-2.922,3.371,3.371,0,0,0-1.785-1.122C178.321,246.844,178.02,246.869,178.016,246.814Z" transform="translate(-174.618 -246.256)"/></g><g transform="translate(254.414 217.729)"><path class="n" d="M175.3,240.241a.4.4,0,0,1-.414.62c-.176-.018-.279-.282-.117-.524S175.209,240.091,175.3,240.241Z" transform="translate(-174.685 -240.139)"/></g><g transform="translate(256.319 219.159)"><path class="n" d="M175.7,240.576a.326.326,0,1,1-.444.106A.325.325,0,0,1,175.7,240.576Z" transform="translate(-175.205 -240.529)"/></g><g transform="translate(256.164 242.533)"><path class="n" d="M175.81,246.959a.39.39,0,0,1-.026.543.336.336,0,1,1,.026-.543Z" transform="translate(-175.162 -246.905)"/></g><g transform="translate(257.992 244.439)"><path class="n" d="M176.475,247.5c.121.132.048.392-.165.583s-.473.235-.59.106-.048-.392.161-.579S176.357,247.369,176.475,247.5Z" transform="translate(-175.661 -247.425)"/></g><g transform="translate(235.204 253.104)"><path class="n" d="M175.733,249.789c.172.033-1.092,7.277-2.823,16.177s-3.274,16.086-3.45,16.053,1.092-7.277,2.823-16.174S175.557,249.756,175.733,249.789Z" transform="translate(-169.445 -249.789)"/></g><g transform="translate(221.128 251.157)"><path class="n" d="M172.372,249.258c.172.037-1.2,7.141-3.065,15.859s-3.516,15.767-3.688,15.73,1.2-7.138,3.061-15.862S172.2,249.221,172.372,249.258Z" transform="translate(-165.605 -249.258)"/></g><g transform="translate(176.811 240.628)"><path class="n" d="M219.256,259.067c-.033.172-14.777-2.522-32.931-6.023s-32.843-6.474-32.81-6.65,14.774,2.522,32.931,6.023S219.289,258.891,219.256,259.067Z" transform="translate(-153.516 -246.386)"/></g><g transform="translate(177.922 280.212)"><path class="n" d="M211.117,261.764c-.015.18-12.853-.7-28.671-1.958s-28.638-2.423-28.627-2.6,12.853.7,28.678,1.961S211.131,261.588,211.117,261.764Z" transform="translate(-153.819 -257.184)"/></g><g transform="translate(250.543 279.733)"><path class="n" d="M175.026,270.947c-.161.04-.982-3.013-1.276-6.892s.04-7.016.205-7c.191.007.132,3.131.436,6.958C174.678,267.834,175.209,270.906,175.026,270.947Z" transform="translate(-173.629 -257.053)"/></g><g transform="translate(257.288 181.071)"><path class="n" d="M192.805,230.211c.015.176-3.857.627-8.644,1s-8.677.543-8.692.363,3.857-.623,8.644-1S192.79,230.035,192.805,230.211Z" transform="translate(-175.469 -230.14)"/></g><g transform="translate(279.818 185.321)"><path class="n" d="M230.885,291.9c-.139.114-11.28-13.362-24.88-30.093s-24.525-30.394-24.389-30.5,11.276,13.362,24.884,30.1S231.021,291.787,230.885,291.9Z" transform="translate(-181.615 -231.299)"/></g><g transform="translate(182.389 196.063)"><path class="n" d="M158.386,280.221c-.176.011-1.059-10.272-1.976-22.97s-1.518-23.007-1.342-23.022,1.063,10.272,1.98,22.974S158.562,280.207,158.386,280.221Z" transform="translate(-155.038 -234.229)"/></g><g transform="translate(188.649 281.36)"><path class="n" d="M159.138,271.79c-.143.073-1.565-2.947-2.123-6.987-.587-4.04-.059-7.335.1-7.306.194.011-.037,3.266.535,7.214C158.192,268.663,159.321,271.724,159.138,271.79Z" transform="translate(-156.745 -257.497)"/></g><g transform="translate(265.249 172.001)"><path class="u" d="M181.422,232.147c-.132.114-1.085-.8-2.126-2.031s-1.774-2.328-1.639-2.441,1.089.8,2.13,2.031S181.557,232.03,181.422,232.147Z" transform="translate(-177.641 -227.665)"/></g><g transform="translate(206.062 197.886)"><path class="u" d="M165.527,234.732c.147.1-.634,1.5-1.745,3.116s-2.123,2.856-2.269,2.757.634-1.5,1.741-3.116S165.38,234.633,165.527,234.732Z" transform="translate(-161.495 -234.726)"/></g><g transform="translate(188.497 204.518)"><path class="u" d="M162.867,242.388c-.121.128-1.6-1.074-3.3-2.687s-2.98-3.028-2.856-3.156,1.6,1.078,3.3,2.691S162.988,242.26,162.867,242.388Z" transform="translate(-156.704 -236.535)"/></g><g transform="translate(195.384 187.111)"><path class="u" d="M160.9,238.833c-.128.1-1.243-1.246-1.866-3.281s-.469-3.776-.3-3.765c.187,0,.315,1.653.917,3.574S161.059,238.73,160.9,238.833Z" transform="translate(-158.582 -231.787)"/></g><g transform="translate(200.261 176.041)"><path class="u" d="M165.573,233.011c-.07.158-1.609-.4-3.208-1.606s-2.57-2.522-2.441-2.628c.139-.125,1.279.964,2.826,2.115S165.654,232.846,165.573,233.011Z" transform="translate(-159.913 -228.767)"/></g><g transform="translate(226.263 194.687)"><path class="u" d="M170.284,233.858c.15.088-.455,1.4-1.353,2.929s-1.749,2.694-1.9,2.606.455-1.4,1.353-2.933S170.13,233.77,170.284,233.858Z" transform="translate(-167.006 -233.854)"/></g><g transform="translate(219.45 181.7)"><path class="u" d="M165.971,238.545c-.165.033-.66-1.782-.788-4.088s.15-4.161.319-4.146.187,1.855.323,4.113S166.151,238.512,165.971,238.545Z" transform="translate(-165.147 -230.311)"/></g><g transform="translate(218.784 209.23)"><path class="u" d="M166.4,246.311c-.154.066-.99-1.738-1.3-4.146s.022-4.366.187-4.344c.187.015.136,1.936.447,4.26S166.576,246.249,166.4,246.311Z" transform="translate(-164.966 -237.821)"/></g><g transform="translate(206.368 218.169)"><path class="u" d="M166.308,246.853c-.114.125-1.569-1.045-2.892-2.911s-1.969-3.615-1.815-3.681,1.041,1.507,2.335,3.31S166.437,246.718,166.308,246.853Z" transform="translate(-161.579 -240.259)"/></g><g transform="translate(193.234 228.776)"><path class="u" d="M162.941,243.172c.1.143-.92,1.052-2.284,2.027s-2.551,1.653-2.654,1.507.92-1.048,2.284-2.027S162.838,243.029,162.941,243.172Z" transform="translate(-157.996 -243.153)"/></g><g transform="translate(187.784 218.393)"><path class="u" d="M159.045,243.945c-.1.132-1.008-.418-1.727-1.477s-.917-2.1-.755-2.145.612.81,1.283,1.782S159.162,243.8,159.045,243.945Z" transform="translate(-156.509 -240.32)"/></g><g transform="translate(208.651 238.857)"><path class="u" d="M164.1,245.9c.169.048-.106,1.514-.616,3.27s-1.063,3.142-1.232,3.094.106-1.514.616-3.27S163.93,245.853,164.1,245.9Z" transform="translate(-162.201 -245.903)"/></g><g transform="translate(219.725 235.826)"><path class="u" d="M168.609,251.649c-.121.117-1.382-1.067-2.331-2.951s-1.169-3.6-1-3.622c.183-.04.66,1.543,1.576,3.332S168.748,251.529,168.609,251.649Z" transform="translate(-165.222 -245.076)"/></g><g transform="translate(232.494 238.413)"><path class="u" d="M175.067,250.029c-.1.147-1.6-.678-3.358-1.848s-3.1-2.236-3-2.383,1.6.682,3.354,1.851S175.163,249.882,175.067,250.029Z" transform="translate(-168.706 -245.781)"/></g><g transform="translate(234.937 224.372)"><path class="u" d="M175.029,241.964c.11.136-1.059,1.3-2.621,2.6s-2.914,2.244-3.028,2.108,1.059-1.3,2.617-2.6S174.915,241.829,175.029,241.964Z" transform="translate(-169.372 -241.951)"/></g><g transform="translate(225.142 224.255)"><path class="u" d="M168.629,241.933c.143.106-.165.766-.689,1.481s-1.059,1.206-1.206,1.1.169-.766.693-1.477S168.486,241.83,168.629,241.933Z" transform="translate(-166.7 -241.919)"/></g><g transform="translate(231.066 208.554)"><path class="u" d="M174.471,243.016c-.143.117-1.389-1.213-3.076-2.68s-3.171-2.526-3.076-2.683,1.763.686,3.5,2.2S174.6,242.914,174.471,243.016Z" transform="translate(-168.316 -237.636)"/></g><g transform="translate(206.266 161.922)"><path class="u" d="M161.562,233.491c-.147-.117,1.125-1.833,2.236-4.19s1.653-4.425,1.837-4.384c.161.022-.092,2.222-1.261,4.656C163.223,232.017,161.683,233.6,161.562,233.491Z" transform="translate(-161.551 -224.916)"/></g><g transform="translate(199.408 155.104)"><path class="u" d="M160.571,231.762c-.169.033-.667-1.884-.832-4.318s.062-4.4.235-4.388.238,1.958.407,4.348S160.751,231.729,160.571,231.762Z" transform="translate(-159.68 -223.056)"/></g><g transform="translate(195.773 134.868)"><path class="u" d="M163.426,221.059c-.033.165-1.448-.084-2.83-1.125s-2.031-2.31-1.888-2.39c.158-.106.982.931,2.269,1.877C162.253,220.385,163.485,220.879,163.426,221.059Z" transform="translate(-158.689 -217.536)"/></g><g transform="translate(191.566 125.903)"><path class="u" d="M162.021,215.129c.073.161-.869.763-2.1,1.345s-2.3.927-2.375.766.865-.759,2.1-1.342S161.944,214.971,162.021,215.129Z" transform="translate(-157.541 -215.091)"/></g><g transform="translate(211.404 139.337)"><path class="u" d="M163.072,224.635c-.172-.018-.158-1.353.037-2.977s.495-2.925.671-2.9.161,1.353-.033,2.977S163.248,224.657,163.072,224.635Z" transform="translate(-162.952 -218.755)"/></g><g transform="translate(218.853 161.191)"><path class="u" d="M167.82,226.867c-.1.139-.821-.22-1.6-.807s-1.327-1.173-1.221-1.312.825.216,1.606.8S167.927,226.724,167.82,226.867Z" transform="translate(-164.984 -224.716)"/></g><g transform="translate(251.592 156.745)"><path class="u" d="M175.5,223.5c.172.04-.029,1.54-.451,3.351s-.9,3.252-1.074,3.211.029-1.54.451-3.354S175.329,223.464,175.5,223.5Z" transform="translate(-173.915 -223.504)"/></g><g transform="translate(251.281 137.457)"><path class="u" d="M176.476,221.537c-.081.15-1.037-.26-1.8-1.246s-.949-2.005-.784-2.046c.172-.059.59.773,1.287,1.65S176.575,221.383,176.476,221.537Z" transform="translate(-173.83 -218.242)"/></g><g transform="translate(259.548 144.511)"><path class="u" d="M179.171,220.172c.15.1-.414,1.276-1.257,2.639s-1.653,2.4-1.8,2.3.414-1.276,1.257-2.639S179.02,220.08,179.171,220.172Z" transform="translate(-176.085 -220.166)"/></g><g transform="translate(269.215 145.217)"><path class="u" d="M178.893,227.658c-.18-.011-.224-1.653-.1-3.67s.359-3.64.539-3.629.22,1.653.1,3.67S179.065,227.669,178.893,227.658Z" transform="translate(-178.722 -220.359)"/></g><g transform="translate(259.036 128.553)"><path class="u" d="M181.138,222.173c-.139.114-1.408-1.221-2.837-2.973s-2.478-3.266-2.342-3.38,1.408,1.221,2.837,2.977S181.273,222.063,181.138,222.173Z" transform="translate(-175.946 -215.813)"/></g><g transform="translate(179.172 152.035)"><path class="u" d="M154.226,230.926c-.172-.029,0-2,.4-4.406s.854-4.329,1.026-4.3,0,2-.4,4.4S154.4,230.955,154.226,230.926Z" transform="translate(-154.16 -222.219)"/></g><g transform="translate(165.924 145.805)"><path class="u" d="M157.126,220.635c.015.183-1.477.429-3.274.894s-3.23.953-3.3.785c-.073-.15,1.287-.935,3.145-1.4S157.118,220.463,157.126,220.635Z" transform="translate(-150.546 -220.519)"/></g><g transform="translate(177.671 135.798)"><path class="u" d="M158,222.04c-.125.125-1.173-.722-2.342-1.892s-2.016-2.222-1.892-2.346,1.173.722,2.343,1.9S158.122,221.915,158,222.04Z" transform="translate(-153.751 -217.79)"/></g><g transform="translate(188.879 150.165)"><path class="u" d="M157.611,229c-.161.048-.737-1.551-.8-3.626s.4-3.706.561-3.67c.183.033,0,1.657.077,3.651S157.794,228.957,157.611,229Z" transform="translate(-156.808 -221.709)"/></g><g transform="translate(179.975 175.055)"><path class="u" d="M154.411,234.894c-.165-.07.319-1.558,1.074-3.321s1.5-3.142,1.661-3.072-.319,1.558-1.074,3.325S154.573,234.964,154.411,234.894Z" transform="translate(-154.379 -228.498)"/></g><g transform="translate(171.289 166.153)"><path class="u" d="M152.051,231.026c-.161-.048.139-1.422,1.089-2.841s2.1-2.233,2.2-2.1c.125.139-.777,1.111-1.668,2.456S152.223,231.088,152.051,231.026Z" transform="translate(-152.01 -226.07)"/></g><g transform="translate(159.801 161)"><path class="u" d="M148.9,232.2c-.161-.07.444-1.811,1.353-3.893s1.774-3.71,1.939-3.637-.444,1.815-1.353,3.893S149.067,232.27,148.9,232.2Z" transform="translate(-148.876 -224.664)"/></g><g transform="translate(152.347 158.165)"><path class="u" d="M146.936,231.414c-.176-.022-.1-1.727.18-3.8s.634-3.743.81-3.721.1,1.727-.18,3.8S147.112,231.439,146.936,231.414Z" transform="translate(-146.843 -223.891)"/></g><g transform="translate(143.952 179.609)"><path class="u" d="M147.886,235.383c-.154.088-1.016-1.1-1.932-2.658s-1.532-2.889-1.378-2.98,1.015,1.1,1.932,2.658S148.04,235.292,147.886,235.383Z" transform="translate(-144.553 -229.741)"/></g><g transform="translate(154.299 172.53)"><path class="u" d="M149.344,234.388c-.169.051-.737-1.378-1.268-3.2s-.821-3.329-.652-3.38.737,1.386,1.268,3.2S149.516,234.34,149.344,234.388Z" transform="translate(-147.375 -227.81)"/></g><g transform="translate(160.719 186.173)"><path class="u" d="M156.457,231.556c.07.169-1.646,1.019-3.651,2.236s-3.556,2.331-3.673,2.189c-.11-.125,1.287-1.5,3.343-2.738S156.395,231.4,156.457,231.556Z" transform="translate(-149.126 -231.531)"/></g><g transform="translate(170.859 197.227)"><path class="u" d="M151.906,241.62c-.143-.114.854-1.6,1.873-3.538s1.7-3.593,1.873-3.534-.246,1.844-1.305,3.835S152.034,241.726,151.906,241.62Z" transform="translate(-151.892 -234.547)"/></g><g transform="translate(162.197 198.171)"><path class="u" d="M149.686,243.51c-.176-.011-.209-1.969-.07-4.373s.392-4.344.568-4.333.209,1.965.07,4.37S149.862,243.518,149.686,243.51Z" transform="translate(-149.529 -234.804)"/></g><g transform="translate(147.505 195.363)"><path class="u" d="M152.18,240.819c-.048.154-2.192-.634-4.113-2.614-1.936-1.961-2.68-4.12-2.526-4.164.172-.088,1.14,1.855,2.984,3.717C150.347,239.643,152.268,240.647,152.18,240.819Z" transform="translate(-145.522 -234.038)"/></g><g transform="translate(139.788 193.236)"><path class="u" d="M143.484,240.757c-.172-.033,0-1.694.389-3.706s.843-3.622,1.015-3.593,0,1.694-.388,3.71S143.66,240.79,143.484,240.757Z" transform="translate(-143.417 -233.458)"/></g><g transform="translate(158.368 216.974)"><path class="u" d="M152.976,239.954c.1.154-.99,1-2.207,2.152s-2.115,2.192-2.266,2.082c-.143-.092.554-1.345,1.826-2.548S152.891,239.808,152.976,239.954Z" transform="translate(-148.485 -239.933)"/></g><g transform="translate(145.775 214.645)"><path class="u" d="M145.436,247.532c-.176,0-.345-1.84-.381-4.113s.084-4.12.264-4.12.345,1.837.378,4.109S145.612,247.528,145.436,247.532Z" transform="translate(-145.05 -239.298)"/></g><g transform="translate(131.039 224.588)"><path class="u" d="M148.366,245.037c-.037.169-1.826-.136-3.879-.982s-3.541-1.877-3.453-2.023,1.686.612,3.7,1.433S148.413,244.865,148.366,245.037Z" transform="translate(-141.03 -242.01)"/></g><g transform="translate(132.881 208.05)"><path class="u" d="M142.619,244.791c-.176.026-.539-1.587-.814-3.6s-.356-3.666-.18-3.692.539,1.591.814,3.6S142.8,244.765,142.619,244.791Z" transform="translate(-141.533 -237.499)"/></g><g transform="translate(141.442 235.468)"><path class="u" d="M150.452,245.055c.029.176-1.419.583-3.237.916s-3.318.458-3.347.286,1.415-.586,3.233-.916S150.419,244.882,150.452,245.055Z" transform="translate(-143.868 -244.978)"/></g><g transform="translate(125.344 233.935)"><path class="u" d="M140.307,251.621c-.176.018-.477-1.547-.671-3.5s-.213-3.545-.037-3.563.477,1.551.671,3.5S140.483,251.6,140.307,251.621Z" transform="translate(-139.477 -244.56)"/></g><g transform="translate(117.153 246.409)"><path class="u" d="M138.924,255.262c-.172.037-.675-1.565-1.125-3.578s-.671-3.684-.5-3.721.675,1.565,1.125,3.578S139.1,255.226,138.924,255.262Z" transform="translate(-137.242 -247.963)"/></g><g transform="translate(119.081 260.017)"><path class="u" d="M143.652,251.7c.081.158-1.169.971-2.793,1.815s-3.006,1.408-3.087,1.25,1.166-.971,2.79-1.815S143.571,251.544,143.652,251.7Z" transform="translate(-137.768 -251.675)"/></g><g transform="translate(128.741 249.928)"><path class="u" d="M144.325,256.289c-.125.11-1.455-1.283-2.552-3.365s-1.5-3.959-1.334-4,.832,1.686,1.9,3.7S144.471,256.171,144.325,256.289Z" transform="translate(-140.403 -248.923)"/></g><g transform="translate(140.776 247.415)"><path class="u" d="M145.955,253.607c-.161.066-.8-1.081-1.411-2.562s-.982-2.738-.817-2.8.8,1.078,1.411,2.559S146.12,253.537,145.955,253.607Z" transform="translate(-143.686 -248.237)"/></g><g transform="translate(131.552 263.813)"><path class="u" d="M147.53,252.72c.121.132-1.21,1.507-2.962,3.061s-3.274,2.72-3.391,2.584,1.21-1.5,2.966-3.057S147.417,252.588,147.53,252.72Z" transform="translate(-141.17 -252.71)"/></g><g transform="translate(147.008 260.561)"><path class="u" d="M151.2,259.953c-.117.121-1.818-1.4-3.439-3.677s-2.507-4.381-2.353-4.45,1.279,1.851,2.878,4.076S151.328,259.821,151.2,259.953Z" transform="translate(-145.386 -251.823)"/></g><g transform="translate(142.385 274.253)"><path class="u" d="M150.713,255.719c.015.176-1.452.422-3.27.554s-3.3.1-3.318-.084,1.452-.422,3.274-.554S150.7,255.543,150.713,255.719Z" transform="translate(-144.125 -255.558)"/></g><g transform="translate(155.468 240.547)"><path class="u" d="M150.847,256.7c-.169.051-1-2.222-1.87-5.077s-1.422-5.209-1.254-5.257,1.008,2.218,1.87,5.074S151.016,256.647,150.847,256.7Z" transform="translate(-147.694 -246.364)"/></g><g transform="translate(165.219 245.239)"><path class="u" d="M158.6,247.726c.022.176-1.8.572-4.076.891s-4.142.433-4.164.257,1.8-.576,4.076-.891S158.569,247.55,158.6,247.726Z" transform="translate(-150.354 -247.643)"/></g><g transform="translate(160.497 260.689)"><path class="u" d="M154.251,251.931c.033.183-1.188.535-2.588,1.18s-2.474,1.32-2.588,1.177.832-1.089,2.324-1.76S154.229,251.766,154.251,251.931Z" transform="translate(-149.066 -251.858)"/></g><g transform="translate(165.867 268.093)"><path class="u" d="M156.695,260.2c-.125.125-1.606-1.188-3.307-2.933s-2.977-3.255-2.848-3.38,1.606,1.191,3.307,2.933S156.823,260.078,156.695,260.2Z" transform="translate(-150.531 -253.878)"/></g><g transform="translate(179.271 255.586)"><path class="u" d="M154.246,258c-.176-.044.081-1.712.268-3.772s.257-3.75.44-3.761.4,1.708.2,3.816S154.411,258.043,154.246,258Z" transform="translate(-154.187 -250.466)"/></g><g transform="translate(181.006 271.427)"><path class="u" d="M162.676,254.812c.07.161-1.668,1.078-3.878,2.046s-4.065,1.62-4.135,1.455,1.664-1.074,3.878-2.042S162.607,254.651,162.676,254.812Z" transform="translate(-154.66 -254.787)"/></g><g transform="translate(189.94 245.916)"><path class="u" d="M161.817,256.307c-.154.084-1.334-1.741-2.632-4.084s-2.225-4.3-2.071-4.392,1.331,1.741,2.628,4.08S161.971,256.219,161.817,256.307Z" transform="translate(-157.097 -247.828)"/></g><g transform="translate(190.755 260.9)"><path class="u" d="M165.188,252.283c-.018.183-1.789.117-3.937.345s-3.875.631-3.93.451c-.059-.158,1.635-.869,3.864-1.089S165.214,252.115,165.188,252.283Z" transform="translate(-157.32 -251.916)"/></g><g transform="translate(206.854 250.4)"><path class="u" d="M167.367,256.122c-.165.084-1.191-1.661-2.746-3.593s-3.021-3.325-2.9-3.468,1.811,1.067,3.406,3.068S167.517,256.052,167.367,256.122Z" transform="translate(-161.711 -249.051)"/></g><g transform="translate(203.111 269.066)"><path class="u" d="M166.833,254.183c.059.165-1.265.81-2.958,1.441s-3.123,1.016-3.182.847,1.261-.814,2.958-1.444S166.771,254.014,166.833,254.183Z" transform="translate(-160.69 -254.143)"/></g><g transform="translate(230.28 268.533)"><path class="u" d="M169.188,261.048c-.176.026-.539-1.532-.814-3.479s-.356-3.549-.18-3.571.539,1.536.814,3.483S169.361,261.026,169.188,261.048Z" transform="translate(-168.102 -253.998)"/></g><g transform="translate(234.332 253.474)"><path class="u" d="M169.288,258.124c-.176-.026-.055-1.888.271-4.161s.737-4.1.909-4.073.055,1.888-.271,4.161S169.46,258.149,169.288,258.124Z" transform="translate(-169.207 -249.89)"/></g><g transform="translate(214.859 265.24)"><path class="u" d="M168.617,253.1c.165.07-.755,2.65-2.053,5.77s-2.485,5.594-2.65,5.524.759-2.65,2.057-5.77S168.455,253.035,168.617,253.1Z" transform="translate(-163.895 -253.1)"/></g><g transform="translate(178.733 214.883)"><path class="u" d="M155.311,247.835c-.176.022-.583-1.855-.913-4.19s-.455-4.256-.279-4.282.583,1.851.913,4.19S155.487,247.809,155.311,247.835Z" transform="translate(-154.04 -239.363)"/></g><g transform="translate(180.171 232.761)"><path class="u" d="M155.464,249.186c-.15.073-.77-.949-.964-2.383s.106-2.592.271-2.562c.183.026.169,1.136.363,2.471S155.633,249.112,155.464,249.186Z" transform="translate(-154.433 -244.24)"/></g><g transform="translate(182.559 286.411)"><path class="u" d="M156.561,264.759c-.172.044-.627-1.243-1.019-2.863s-.565-2.977-.392-3.021.627,1.243,1.015,2.87S156.734,264.719,156.561,264.759Z" transform="translate(-155.084 -258.875)"/></g><g transform="translate(192.753 287.051)"><path class="u" d="M165.865,261.673c-.055.169-1.888-.275-4.1-.986s-3.955-1.433-3.9-1.6,1.888.275,4.1.99S165.924,261.5,165.865,261.673Z" transform="translate(-157.865 -259.049)"/></g><g transform="translate(210.148 286.869)"><path class="u" d="M167.56,259.016c.11.139-.906,1.144-2.269,2.251s-2.559,1.884-2.672,1.749.905-1.144,2.269-2.247S167.45,258.876,167.56,259.016Z" transform="translate(-162.61 -259)"/></g><g transform="translate(222.392 287.75)"><path class="u" d="M172.78,261.66c-.092.161-1.543-.546-3.413-1.177s-3.442-.979-3.417-1.162,1.69-.114,3.626.557S172.871,261.52,172.78,261.66Z" transform="translate(-165.95 -259.24)"/></g><g transform="translate(242.821 284.281)"><path class="u" d="M174.391,258.306c.128.128-.594,1.063-1.356,2.277s-1.294,2.262-1.466,2.2.114-1.265.924-2.54S174.273,258.185,174.391,258.306Z" transform="translate(-171.523 -258.294)"/></g><g transform="translate(244.85 243.36)"><path class="u" d="M173.33,254.9c-.176.026-.583-1.69-.905-3.834s-.444-3.9-.268-3.93.576,1.69.9,3.835S173.5,254.87,173.33,254.9Z" transform="translate(-172.076 -247.131)"/></g><g transform="translate(254.166 254.381)"><path class="u" d="M180.258,254.168c-.1.143-1.444-.638-3-1.745s-2.738-2.126-2.632-2.269,1.444.638,3,1.745S180.365,254.025,180.258,254.168Z" transform="translate(-174.617 -250.137)"/></g><g transform="translate(274.397 227.621)"><path class="u" d="M180.166,252.223c-.169-.055.4-2.2,1.268-4.795s1.712-4.645,1.877-4.59-.4,2.2-1.268,4.795S180.331,252.278,180.166,252.223Z" transform="translate(-180.136 -242.838)"/></g><g transform="translate(260.386 231.194)"><path class="u" d="M181.835,248.229c-.11.139-1.433-.737-2.958-1.95s-2.665-2.313-2.555-2.452,1.433.737,2.955,1.954S181.945,248.09,181.835,248.229Z" transform="translate(-176.314 -243.812)"/></g><g transform="translate(267.339 218.891)"><path class="u" d="M181.067,240.459c.161.073-.345,1.5-1.122,3.193s-1.543,3-1.7,2.925.341-1.507,1.122-3.193S180.906,240.386,181.067,240.459Z" transform="translate(-178.211 -240.456)"/></g><g transform="translate(251.287 228.054)"><path class="u" d="M176.472,249.075c-.147.092-1.067-1.125-1.789-2.848s-.968-3.23-.8-3.27.674,1.349,1.386,3.021S176.626,248.98,176.472,249.075Z" transform="translate(-173.832 -242.956)"/></g><g transform="translate(261.921 202.872)"><path class="u" d="M181.445,236.092c.147.084-.535,1.448-1.888,2.727s-2.742,1.892-2.819,1.741,1.1-.982,2.379-2.207S181.291,235.993,181.445,236.092Z" transform="translate(-176.733 -236.086)"/></g><g transform="translate(249.434 199.81)"><path class="u" d="M176.877,240.438c-.147.1-1.056-.979-2.031-2.409s-1.646-2.672-1.5-2.771,1.056.979,2.031,2.409S177.02,240.335,176.877,240.438Z" transform="translate(-173.327 -235.251)"/></g><g transform="translate(260.74 189.211)"><path class="u" d="M181.83,235.678c-.092.15-1.378-.466-2.874-1.375s-2.632-1.771-2.54-1.921,1.378.466,2.874,1.375S181.922,235.528,181.83,235.678Z" transform="translate(-176.411 -232.36)"/></g><g transform="translate(275.047 194.167)"><path class="u" d="M180.455,243.6c-.176-.011-.191-2.233-.029-4.964s.436-4.938.612-4.927.187,2.232.029,4.964S180.631,243.614,180.455,243.6Z" transform="translate(-180.313 -233.712)"/></g><g transform="translate(268.151 247.09)"><path class="u" d="M178.461,256.373c-.165-.062.4-1.954,1.25-4.223s1.683-4.062,1.848-4-.392,1.954-1.25,4.227S178.626,256.435,178.461,256.373Z" transform="translate(-178.432 -248.149)"/></g><g transform="translate(280.701 248.778)"><path class="u" d="M181.9,256.6c-.172-.044.121-1.866.66-4.069s1.114-3.959,1.283-3.919-.125,1.862-.66,4.069S182.077,256.638,181.9,256.6Z" transform="translate(-181.856 -248.609)"/></g><g transform="translate(259.382 283.358)"><path class="u" d="M178.357,264.384c-.125.11-1.217-1.067-1.844-2.911s-.5-3.439-.334-3.431c.187,0,.334,1.5.938,3.222C177.7,263,178.51,264.278,178.357,264.384Z" transform="translate(-176.04 -258.042)"/></g><g transform="translate(298.539 181.937)"><path class="u" d="M187.229,238.852c-.165.026-.587-1.877-.495-4.263s.634-4.256.8-4.212-.084,1.914-.161,4.234S187.413,238.826,187.229,238.852Z" transform="translate(-186.721 -230.376)"/></g><g transform="translate(285.449 180.253)"><path class="u" d="M189.274,231.612c-.044.172-1.455-.055-3.142-.51s-3.024-.957-2.98-1.129,1.455.059,3.145.51S189.318,231.444,189.274,231.612Z" transform="translate(-183.151 -229.916)"/></g><g transform="translate(292.692 161.695)"><path class="u" d="M185.381,233.8c-.18,0-.286-2.005-.246-4.476s.216-4.469.392-4.465.286,2.005.246,4.476S185.557,233.8,185.381,233.8Z" transform="translate(-185.127 -224.854)"/></g><g transform="translate(279.584 164.272)"><path class="u" d="M188.579,226.29c-.015.176-1.6.187-3.541.022s-3.5-.44-3.486-.616,1.6-.187,3.541-.022S188.6,226.114,188.579,226.29Z" transform="translate(-181.551 -225.557)"/></g><g transform="translate(280.817 146.639)"><path class="u" d="M182.52,227.1c-.176.015-.425-1.4-.554-3.153s-.1-3.186.081-3.2.425,1.393.557,3.149S182.7,227.085,182.52,227.1Z" transform="translate(-181.887 -220.747)"/></g><g transform="translate(286.429 204.011)"><path class="u" d="M187.9,242.291c-.139.106-1.257-1.125-2.489-2.749s-2.119-3.032-1.98-3.138,1.257,1.125,2.489,2.749S188.041,242.185,187.9,242.291Z" transform="translate(-183.418 -236.397)"/></g><g transform="translate(296.591 211.338)"><path class="u" d="M186.325,245.7c-.176-.015-.18-1.661-.011-3.677s.451-3.64.627-3.626.18,1.661.011,3.677S186.5,245.713,186.325,245.7Z" transform="translate(-186.19 -238.396)"/></g><g transform="translate(300.758 224.191)"><path class="u" d="M193.207,242.023c.022.176-1.276.477-2.9.675s-2.955.213-2.977.037,1.276-.477,2.9-.674S193.185,241.847,193.207,242.023Z" transform="translate(-187.327 -241.902)"/></g><g transform="translate(309.387 231.338)"><path class="u" d="M191.606,243.853c.165.055-.117,1.367-.634,2.925s-1.074,2.782-1.243,2.724.117-1.364.634-2.925S191.438,243.8,191.606,243.853Z" transform="translate(-189.681 -243.852)"/></g><g transform="translate(317.44 241.934)"><path class="u" d="M193.316,246.753c.15.114-.466,1.081-.719,2.423-.275,1.342-.073,2.471-.253,2.518-.154.07-.678-1.125-.374-2.639S193.2,246.629,193.316,246.753Z" transform="translate(-191.878 -246.742)"/></g><g transform="translate(313.929 224.147)"><path class="u" d="M198.689,242.267c-.018.183-1.763.121-3.886.323s-3.827.561-3.882.385c-.051-.158,1.624-.825,3.823-1.023S198.711,242.1,198.689,242.267Z" transform="translate(-190.92 -241.89)"/></g><g transform="translate(328.804 221.466)"><path class="u" d="M196.131,241.16c.176.055-.224,1.752-.436,3.875s-.183,3.864-.37,3.879c-.165.022-.5-1.752-.268-3.945S195.973,241.105,196.131,241.16Z" transform="translate(-194.978 -241.159)"/></g><g transform="translate(309.991 197.925)"><path class="u" d="M189.946,244.389c-.176-.018-.114-2.192.136-4.857s.6-4.813.777-4.795.114,2.189-.139,4.854S190.122,244.4,189.946,244.389Z" transform="translate(-189.846 -234.737)"/></g><g transform="translate(299.093 197.459)"><path class="u" d="M193.212,235.927c-.033.176-1.481.037-3.23-.308s-3.145-.759-3.109-.935,1.477-.033,3.23.308S193.245,235.754,193.212,235.927Z" transform="translate(-186.873 -234.61)"/></g><g transform="translate(308.439 177.454)"><path class="u" d="M190.459,237.394c-.158.055-.862-1.734-1-4.073s.308-4.2.473-4.168c.183.029.011,1.873.165,4.128S190.635,237.343,190.459,237.394Z" transform="translate(-189.422 -229.153)"/></g><g transform="translate(300.043 172.151)"><path class="u" d="M190.9,228.339c-.022.176-.883.213-1.921.081s-1.866-.381-1.844-.557.883-.209,1.925-.077S190.919,228.167,190.9,228.339Z" transform="translate(-187.132 -227.706)"/></g><g transform="translate(315.802 193.684)"><path class="u" d="M196.385,236.417c-.037.169-1.375-.015-2.8-.836s-2.266-1.873-2.141-1.987c.128-.132,1.114.675,2.46,1.433S196.432,236.241,196.385,236.417Z" transform="translate(-191.431 -233.58)"/></g><g transform="translate(320.84 209.756)"><path class="u" d="M198.879,237.989c.081.158-1.21.99-2.889,1.859s-3.1,1.448-3.182,1.29,1.21-.99,2.889-1.859S198.8,237.835,198.879,237.989Z" transform="translate(-192.805 -237.964)"/></g><path class="t" d="M162.411,221.038l.933-10.412,20.719,16.182,5.177,8.359,9.269-21.619,2.271,3.007v13.1l-10.017,12.191-18.9-1.647Z" transform="translate(47.007 -101.09)"/><g transform="translate(208.673 119.617)"><path class="v" d="M183.732,220.756a6,6,0,0,1-.018,1.268q-.093,1.391-.238,3.512c-.26,3.116-.612,7.3-1.016,12.127l-.066.744-.469-.576c-1.437-1.738-2.991-3.618-4.6-5.572-4.245-5.162-8.058-9.854-10.792-13.271-1.3-1.65-2.383-3.017-3.211-4.065a10.141,10.141,0,0,1-1.107-1.547,11.5,11.5,0,0,1,1.305,1.389c.869,1.019,2,2.346,3.369,3.941,2.823,3.34,6.687,7.984,10.928,13.142,1.6,1.958,3.149,3.842,4.575,5.587l-.535.169c.495-4.817.924-8.989,1.243-12.1l.418-3.5A5.665,5.665,0,0,1,183.732,220.756Z" transform="translate(-162.207 -213.376)"/></g><g transform="translate(243.421 120.593)"><path class="v" d="M175.787,221.051a8.447,8.447,0,0,1-.106,2.09c-.132,1.309-.352,3.156-.631,5.308l-.176,1.345-.411-1.3c-.359-1.133-.719-2.383-1.052-3.7a63.221,63.221,0,0,1-1.485-7.849,13.994,13.994,0,0,1-.2-3.3,21.537,21.537,0,0,1,.649,3.237c.356,2,.894,4.755,1.657,7.757.33,1.309.674,2.551,1.008,3.681l-.587.048c.326-2.145.623-3.981.858-5.275A8.614,8.614,0,0,1,175.787,221.051Z" transform="translate(-171.686 -213.642)"/></g><g transform="translate(236.299 133.541)"><path class="v" d="M179.614,282.463a2.666,2.666,0,0,1-.161-.653c-.088-.506-.2-1.133-.337-1.9-.275-1.741-.649-4.109-1.107-6.991-.895-5.99-2.1-14.114-3.431-23.091s-2.544-17.1-3.439-23.088c-.44-2.885-.8-5.25-1.063-6.995-.11-.766-.2-1.4-.271-1.9a2.668,2.668,0,0,1-.051-.675,2.72,2.72,0,0,1,.176.653c.106.5.235,1.122.392,1.884.323,1.639.759,4.018,1.265,6.962,1.019,5.891,2.3,14.048,3.622,23.069s2.453,17.2,3.248,23.117c.374,2.9.682,5.272.909,7.02.088.77.158,1.4.216,1.91A2.614,2.614,0,0,1,179.614,282.463Z" transform="translate(-169.743 -217.174)"/></g><g transform="translate(226.191 136.743)"><path class="v" d="M168.092,218.093c.106.143-.125.5-.352.92s-.407.81-.587.8-.279-.543.029-1.1S167.994,217.947,168.092,218.093Z" transform="translate(-166.986 -218.048)"/></g><g transform="translate(246.058 127.734)"><path class="v" d="M172.693,217.713c-.176,0-.3-.484-.286-1.07s.18-1.059.356-1.052.3.488.286,1.07S172.873,217.72,172.693,217.713Z" transform="translate(-172.406 -215.59)"/></g><g transform="translate(236.286 121.299)"><path class="v" d="M176.981,213.836c.154.051-.839,3.16-2.87,6.606s-4.241,5.843-4.362,5.733c-.15-.121,1.826-2.65,3.809-6.056C175.558,216.725,176.8,213.766,176.981,213.836Z" transform="translate(-169.74 -213.835)"/></g><g transform="translate(230.089 127.523)"><path class="v" d="M174.654,222.445c-.121.128-1.782-1.239-3.607-3.156s-3.12-3.637-2.988-3.75,1.635,1.4,3.45,3.307S174.775,222.317,174.654,222.445Z" transform="translate(-168.049 -215.532)"/></g><g transform="translate(241.485 151.67)"><path class="v" d="M171.788,223.838c-.15.121-.517-.275-.587-.784s-.059-.818.081-.917c.161-.11.488.312.55.8S171.924,223.728,171.788,223.838Z" transform="translate(-171.158 -222.119)"/></g><g transform="translate(243.613 164.059)"><path class="v" d="M172.121,227.207c-.18,0-.312-.374-.367-.817-.059-.469.051-.88.227-.891s.348.345.411.818C172.455,226.812,172.293,227.215,172.121,227.207Z" transform="translate(-171.739 -225.499)"/></g><g transform="translate(238.219 46.524)"><path class="w" d="M170.271,221.1a3.122,3.122,0,0,0,.927.858,2.607,2.607,0,0,0,3.087-.513,4.34,4.34,0,0,0,1.122-2.027,9.092,9.092,0,0,0,.194-2.742c-.132-2.016-.279-4.2-.433-6.5-.293-4.619-.524-8.8-.66-11.83-.07-1.514-.114-2.742-.128-3.593a5.343,5.343,0,0,1,.04-1.32,5.189,5.189,0,0,1,.209,1.305c.092.847.205,2.064.33,3.578.249,3.021.554,7.2.847,11.819.136,2.3.268,4.494.385,6.514a9.329,9.329,0,0,1-.271,2.907,4.746,4.746,0,0,1-1.323,2.218,3.03,3.03,0,0,1-1.976.828,2.8,2.8,0,0,1-1.551-.429C170.311,221.664,170.249,221.089,170.271,221.1Z" transform="translate(-170.267 -193.437)"/></g><g transform="translate(229.678 75.411)"><path class="w" d="M179.92,208.286a4.367,4.367,0,0,1-2.232.876,8.306,8.306,0,0,1-9.366-5.47,4.44,4.44,0,0,1-.334-2.375c.11-.015.191.9.755,2.211a8.506,8.506,0,0,0,8.882,5.187C179.044,208.565,179.88,208.187,179.92,208.286Z" transform="translate(-167.937 -201.317)"/></g><g transform="translate(227.356 74.528)"><path class="w" d="M171.113,201.442c-.051.172-1.092-.044-2.148.576-1.074.579-1.426,1.584-1.6,1.54-.077-.015-.11-.315.062-.755a2.912,2.912,0,0,1,3-1.7C170.9,201.186,171.139,201.369,171.113,201.442Z" transform="translate(-167.304 -201.076)"/></g><g transform="translate(211.764 97.732)"><path class="w" d="M198.083,212.344a6.039,6.039,0,0,1-1.272.784,25.323,25.323,0,0,1-3.758,1.595,29.011,29.011,0,0,1-25.823-3.637,25.436,25.436,0,0,1-3.171-2.57,5.994,5.994,0,0,1-1.008-1.107c.084-.092,1.569,1.448,4.428,3.3a30.258,30.258,0,0,0,25.438,3.585C196.177,213.3,198.028,212.234,198.083,212.344Z" transform="translate(-163.051 -207.406)"/></g><g transform="translate(195.54 65.986)"><path class="w" d="M161.661,207.313a4.184,4.184,0,0,0,1.309-1.785,3.4,3.4,0,0,0-.059-2.309,2.012,2.012,0,0,0-2.082-1.378,1.255,1.255,0,0,0-.99,1.741l-.55.205a26.738,26.738,0,0,1-.63-5.041,25.976,25.976,0,0,1,1.213,4.934l.33,1.635-.876-1.43a1.855,1.855,0,0,1,1.411-2.68,2.453,2.453,0,0,1,1.756.458,2.9,2.9,0,0,1,.968,1.345,3.687,3.687,0,0,1-.07,2.676,3.01,3.01,0,0,1-1.118,1.4C161.91,207.31,161.672,207.346,161.661,207.313Z" transform="translate(-158.625 -198.746)"/></g><g transform="translate(227.096 50.505)"><path class="n" d="M167.9,200.777c-.356,0-.653-1.393-.667-3.123s.264-3.131.616-3.131.653,1.393.667,3.12S168.252,200.777,167.9,200.777Z" transform="translate(-167.233 -194.523)"/></g><g transform="translate(253.726 50.212)"><path class="n" d="M175.2,199.685c-.352.007-.667-1.158-.7-2.606s.227-2.628.579-2.636.667,1.158.7,2.607S175.552,199.678,175.2,199.685Z" transform="translate(-174.497 -194.443)"/></g><path class="h" d="M164.1,229.637c-.7,2.123-1.4,4.472-.532,6.533s4.12,3.054,5.334,1.173a4.685,4.685,0,0,0,.5-2.533q.077-9.013.15-18.018a23.672,23.672,0,0,0,18.329-16.94,15.937,15.937,0,0,0,15.386.513c1.958-1.027,3.926-2.522,6.118-2.225,2.636.356,4.183,3.072,6.346,4.612a8.168,8.168,0,0,0,11.676-3.2c1.932-4.366-.686-9.733-4.766-12.207-5.147-3.116-11.628-2.511-17.6-1.8q-16.546,1.952-33.092,3.911c-2.112.246-4.344.546-6.012,1.87-1.712,1.36-2.5,3.552-3.131,5.653a81.692,81.692,0,0,0-3.362,25.6c.073,2.65.539,5.733,2.848,7.039" transform="translate(39.016 -169.494)"/><g transform="translate(222.379 43.37)"><path class="h" d="M174.971,193.505c.169.869-1.712,1.961-4.2,2.441s-4.641.165-4.81-.7,1.716-1.961,4.2-2.441S174.806,192.636,174.971,193.505Z" transform="translate(-165.946 -192.577)"/></g><g transform="translate(250.527 42.042)"><path class="h" d="M180.742,194.094c-.066.88-1.712,1.477-3.673,1.334s-3.5-.975-3.442-1.855,1.708-1.481,3.673-1.338S180.8,193.21,180.742,194.094Z" transform="translate(-173.624 -192.214)"/></g><g class="x" transform="translate(216.576 40.931)"><path class="y" d="M177.343,191.961a11.9,11.9,0,1,1-12.93,10.77A11.9,11.9,0,0,1,177.343,191.961Z" transform="translate(-164.363 -191.911)"/></g><g class="x" transform="translate(245.745 39.835)"><path class="y" d="M185.3,191.662a11.9,11.9,0,1,1-12.93,10.77A11.9,11.9,0,0,1,185.3,191.662Z" transform="translate(-172.32 -191.612)"/></g><g transform="translate(239.853 53.661)"><path class="z" d="M176.326,195.7c0,.18-1.257.323-2.8.323s-2.808-.143-2.808-.323,1.257-.319,2.808-.319S176.326,195.527,176.326,195.7Z" transform="translate(-170.713 -195.384)"/></g><g transform="translate(272.261 270.787)"><path class="w" d="M194.208,277.361a21.993,21.993,0,0,1-2.537-3.057c-1.485-1.954-3.453-4.722-5.48-7.871s-3.732-6.085-4.9-8.245a21.844,21.844,0,0,1-1.734-3.574,27.509,27.509,0,0,1,2.126,3.351c1.265,2.1,3.021,4.982,5.041,8.124s3.926,5.931,5.312,7.948A28.008,28.008,0,0,1,194.208,277.361Z" transform="translate(-179.553 -254.613)"/></g><g transform="translate(268.216 277.517)"><path class="w" d="M195.152,272.317a2.261,2.261,0,0,1-.931-.1,9.49,9.49,0,0,1-2.379-.913,21.854,21.854,0,0,1-6.188-5.591c-2.06-2.5-3.889-4.791-5.195-6.47a18.654,18.654,0,0,1-2.005-2.8,18.329,18.329,0,0,1,2.354,2.511c1.393,1.6,3.281,3.849,5.338,6.349a24.785,24.785,0,0,0,5.92,5.605A22.23,22.23,0,0,0,195.152,272.317Z" transform="translate(-178.45 -256.448)"/></g><path class="l" d="M189,321.522l32.1-80.705L328.7,242.784l-30.265,76.5L189,321.522" transform="translate(117.881 -20.605)"/><path class="aa" d="M223.018,240.841l-32.88,80.614,105.26-2.241,30.265-76.5Z" transform="translate(120.923 -20.539)"/><path class="ab" d="M210.32,252.4c2.863-2.859,7.068-3.3,9.388-.979s1.884,6.529-.979,9.388-7.064,3.3-9.385.979S207.461,255.263,210.32,252.4Z" transform="translate(168.151 3.695)"/><path class="ac" d="M210.765,252.845c4.491-4.494,11.089-5.184,14.733-1.54s2.958,10.246-1.536,14.737-11.089,5.184-14.733,1.54S206.271,257.335,210.765,252.845Z" transform="translate(165.576 1.121)"/><g class="ad" transform="translate(88.431 13.351)"><path class="ae" d="M152.267,186.687c17.453-6.874,39.548,2.262,47.044,19.455s-.839,39.6-17.754,47.711-39.606.579-48.316-16.035-2-39.559,14.29-48.859" transform="translate(-129.407 -184.388)"/></g></g><path class="af" d="M231.912,203.849c-.136-.139-.271-.275-.411-.411" transform="translate(336.479 60.494)"/></g><g transform="translate(260.661 16.125)"><path class="ag" d="M207.124,254.867a14.437,14.437,0,0,1,18.237-18.83c3.526,1.23,6.491,3.8,10.075,4.855a12.778,12.778,0,0,0,13.913-19.811" transform="translate(23.872 102.892)"/><path class="ah" d="M212.028,205.18a136.072,136.072,0,0,0,9,12.812c.727.918,1.663,1.917,2.831,1.832a3.707,3.707,0,0,0,1.8-.838l14.983-10.663q-5.523-8.5-11.042-17-6.587,4.661-13.164,9.317" transform="translate(44.017 0)"/><path class="ai" d="M203.558,210.278a13.15,13.15,0,1,0,21.193,5.528c-2.6-7.574-11.787-11.2-19.722-10.1" transform="translate(0 49.066)"/><path class="aj" d="M233.594,218.205q-2.1,15.734-4.2,31.477l29.3-4.667a95.3,95.3,0,0,0-21.875-27.055" transform="translate(104.07 92.1)"/><path class="ak" d="M223.844,236.725q1.765-15.473,3.531-30.951" transform="translate(84.875 49.963)"/><path class="ak" d="M232,203.937c-.165-.169-.33-.334-.5-.5" transform="translate(111.352 41.885)"/></g></g></svg>