<svg xmlns="http://www.w3.org/2000/svg" width="22.032" height="23.915" viewBox="0 0 22.032 23.915"><defs><style>.a{fill:#003265;stroke:#000;stroke-width:0.3px;}</style></defs><g transform="translate(0.157 0.152)"><path class="a" d="M-548.285-178.651a13.261,13.261,0,0,1-1.781.253,9.576,9.576,0,0,1-2.019-.194,1.673,1.673,0,0,1-1.294-1.65,6.4,6.4,0,0,1,.073-1.192.763.763,0,0,0-.2-.745,1.1,1.1,0,0,1-.249-1.073c.053-.315.139-.624.19-.939a.559.559,0,0,0-.543-.735c-.118-.018-.238-.031-.355-.055a1.066,1.066,0,0,1-.724-1.676c.49-.769,1.015-1.514,1.525-2.27.183-.272.371-.54.55-.815a.564.564,0,0,0,.026-.632,1.721,1.721,0,0,1-.089-1.431,12.382,12.382,0,0,1,2.067-4.188,9.5,9.5,0,0,1,6.242-3.741,9.51,9.51,0,0,1,8.409,2.746,9.144,9.144,0,0,1,2.78,7.345,9.736,9.736,0,0,1-1.536,4.537,16.259,16.259,0,0,0-2.421,6.635,9.92,9.92,0,0,0,.027,1.672.474.474,0,0,1-.476.556c-.5.007-1.008,0-1.513,0h-7.586c-.392,0-.511-.089-.608-.465C-547.954-177.352-548.119-178-548.285-178.651Zm9.676,1.475c0-.076.01-.124.008-.171a10.458,10.458,0,0,1,.4-3.129,19.622,19.622,0,0,1,2.3-5.278,8.349,8.349,0,0,0,1.2-6,8.77,8.77,0,0,0-9.541-7.135,8.624,8.624,0,0,0-5.9,3.187,11.035,11.035,0,0,0-2.119,4.1,1.094,1.094,0,0,0,.052.91,1.272,1.272,0,0,1-.051,1.346c-.151.245-.311.484-.472.722-.539.794-1.083,1.584-1.62,2.38-.16.237-.126.3.16.364.156.034.314.058.47.093a1.162,1.162,0,0,1,1.049,1.185,8.649,8.649,0,0,1-.162,1.492.446.446,0,0,0,.109.413,1.372,1.372,0,0,1,.357,1.261,5,5,0,0,0-.1,1.022.892.892,0,0,0,.714.954,10.4,10.4,0,0,0,1.212.148,8.354,8.354,0,0,0,2.361-.36c.408-.093.6.022.705.427.158.611.32,1.221.466,1.835.042.178.112.245.3.245q3.937-.008,7.873,0C-538.769-177.161-538.7-177.17-538.608-177.177Z" transform="translate(555.379 199.851)"/><path class="a" d="M-427.159-134.577a4.92,4.92,0,0,1-.64-.292.469.469,0,0,0-.7.29,1.024,1.024,0,0,1-1.1.943c-.373,0-.746,0-1.119,0a1.018,1.018,0,0,1-1.057-.909.453.453,0,0,0-.742-.292,1.039,1.039,0,0,1-1.363-.1q-.414-.408-.822-.822a1.026,1.026,0,0,1-.087-1.442.468.468,0,0,0-.274-.681,1.009,1.009,0,0,1-.964-1.112c0-.366,0-.731,0-1.1a1.02,1.02,0,0,1,.92-1.071.45.45,0,0,0,.29-.717,1.009,1.009,0,0,1,.075-1.358q.425-.443.868-.869a1.035,1.035,0,0,1,1.381-.078.46.46,0,0,0,.716-.3.992.992,0,0,1,.981-.912c.438-.013.878-.01,1.316,0a.986.986,0,0,1,.963.856.535.535,0,0,0,.508.462.311.311,0,0,0,.171-.076,1.051,1.051,0,0,1,1.465.086q.407.4.806.807a1.015,1.015,0,0,1,.088,1.391.451.451,0,0,0,.3.713,1.017,1.017,0,0,1,.917,1.051q.007.6,0,1.206a.987.987,0,0,1-.922,1.012.33.33,0,0,0-.316.25c-.052.157-.136.286.013.46a.989.989,0,0,1-.062,1.387c-.28.289-.567.571-.852.854a.982.982,0,0,1-.73.3Zm1.07-7.935a.807.807,0,0,0-.093-.155c-.271-.276-.547-.549-.82-.823-.11-.11-.208-.076-.3.019a1.327,1.327,0,0,1-2.044-.843.211.211,0,0,0-.245-.237c-.366,0-.731,0-1.1,0-.151,0-.243.067-.239.22a1.328,1.328,0,0,1-2.068.844c-.1-.113-.2-.088-.3.013-.256.261-.513.521-.776.775-.125.121-.138.232-.011.355a1.335,1.335,0,0,1-.838,2.035c-.19,0-.255.1-.253.277,0,.344.005.687,0,1.031,0,.193.08.273.273.287a1.1,1.1,0,0,1,.375.107,1.3,1.3,0,0,1,.613.843,1.009,1.009,0,0,1-.173,1.067.222.222,0,0,0,.012.357q.386.373.76.76a.21.21,0,0,0,.337.021,1.342,1.342,0,0,1,.376-.217,1.292,1.292,0,0,1,.971.135.992.992,0,0,1,.7.9c.014.186.1.252.284.247.343-.009.687-.009,1.031-.005.168,0,.262-.052.264-.236a1.331,1.331,0,0,1,2.033-.841c.136.133.249.106.373-.023q.357-.372.729-.729a.23.23,0,0,0,.014-.374.981.981,0,0,1-.2-.986c.169-.557.438-1.008,1.105-1.053.063,0,.165-.132.169-.206.019-.372.012-.745.013-1.118,0-.15-.068-.238-.225-.231a1.341,1.341,0,0,1-.859-2.043A1.02,1.02,0,0,0-426.089-142.512Z" transform="translate(443.137 147.794)"/><path class="a" d="M-350.327-61.817a2.335,2.335,0,0,1-2.327,2.31,2.343,2.343,0,0,1-2.322-2.341,2.338,2.338,0,0,1,2.331-2.305A2.325,2.325,0,0,1-350.327-61.817Zm-.861-.018a1.465,1.465,0,0,0-1.459-1.468,1.469,1.469,0,0,0-1.465,1.485,1.456,1.456,0,0,0,1.472,1.451A1.451,1.451,0,0,0-351.188-61.835Z" transform="translate(365.927 69.75)"/></g></svg>