<?xml version="1.0" encoding="utf-8"?>
<!-- Generator: Adobe Illustrator 22.0.1, SVG Export Plug-In . SVG Version: 6.00 Build 0)  -->
<svg version="1.1" id="Layer_1" xmlns="http://www.w3.org/2000/svg" xmlns:xlink="http://www.w3.org/1999/xlink" x="0px" y="0px"
	 viewBox="0 0 22 23.9" style="enable-background:new 0 0 22 23.9;" xml:space="preserve">
<style type="text/css">
	.st0{fill:#FFFFFF;stroke:#FFFFFF;stroke-width:0.3;}
</style>
<g transform="translate(0.157 0.152)">
	<path class="st0" d="M7.1,21.2c-0.6,0.1-1.2,0.2-1.8,0.3c-0.7,0-1.4-0.1-2-0.2C2.5,21.1,2,20.4,2,19.6c0-0.4,0-0.8,0.1-1.2
		c0.1-0.3,0-0.6-0.2-0.7c-0.3-0.3-0.4-0.7-0.2-1.1c0.1-0.3,0.1-0.6,0.2-0.9c0.1-0.3-0.1-0.6-0.4-0.7c-0.1,0-0.1,0-0.2,0
		c-0.1,0-0.2,0-0.4-0.1c-0.6-0.1-1-0.6-0.9-1.2c0-0.2,0.1-0.3,0.2-0.5c0.5-0.8,1-1.5,1.5-2.3c0.2-0.3,0.4-0.5,0.5-0.8
		c0.1-0.2,0.1-0.4,0-0.6C2.1,9,2,8.5,2.2,8c0.4-1.5,1.1-2.9,2.1-4.2c1.5-2,3.7-3.4,6.2-3.7c3.1-0.5,6.2,0.5,8.4,2.7
		c2,1.9,3,4.6,2.8,7.3c-0.1,1.6-0.7,3.2-1.5,4.5c-1.3,2-2.1,4.3-2.4,6.6c0,0.6,0,1.1,0,1.7c0,0.3-0.1,0.5-0.4,0.5c0,0-0.1,0-0.1,0
		c-0.5,0-1,0-1.5,0H8.2c-0.4,0-0.5-0.1-0.6-0.5C7.4,22.5,7.3,21.9,7.1,21.2z M16.8,22.7c0-0.1,0-0.1,0-0.2c0-1.1,0.1-2.1,0.4-3.1
		c0.5-1.9,1.3-3.6,2.3-5.3c1.1-1.8,1.6-3.9,1.2-6c-0.8-4.5-5-7.6-9.5-7.1C8.8,1.2,6.7,2.3,5.2,4.1c-1,1.2-1.7,2.6-2.1,4.1
		C3,8.5,3,8.9,3.2,9.2c0.2,0.4,0.2,0.9-0.1,1.3C3,10.8,2.8,11,2.6,11.2C2.1,12,1.6,12.8,1,13.6c-0.2,0.2-0.1,0.3,0.2,0.4
		c0.2,0,0.3,0.1,0.5,0.1c0.6,0.1,1.1,0.6,1,1.2c0,0.5-0.1,1-0.2,1.5c0,0.1,0,0.3,0.1,0.4C3,17.5,3.1,18,3,18.4
		c-0.1,0.3-0.1,0.7-0.1,1c0,0.5,0.3,0.9,0.7,1c0.4,0.1,0.8,0.1,1.2,0.1c0.8,0,1.6-0.1,2.4-0.4c0.4-0.1,0.6,0,0.7,0.4
		c0.2,0.6,0.3,1.2,0.5,1.8c0,0.2,0.1,0.2,0.3,0.2c2.6,0,5.2,0,7.9,0C16.6,22.7,16.7,22.7,16.8,22.7L16.8,22.7z"/>
	<path class="st0" d="M16,13.2c-0.2-0.1-0.4-0.2-0.6-0.3c-0.2-0.1-0.5-0.1-0.6,0.2c0,0,0,0.1-0.1,0.1c0,0.6-0.5,1-1.1,0.9
		c0,0,0,0,0,0c-0.4,0-0.7,0-1.1,0c-0.5,0-1-0.4-1.1-0.9c0-0.2-0.3-0.4-0.5-0.4c-0.1,0-0.2,0-0.2,0.1c-0.4,0.3-1,0.3-1.4-0.1
		C9,12.6,8.7,12.3,8.4,12C8,11.7,8,11,8.3,10.6c0.1-0.2,0.1-0.5-0.2-0.6c0,0-0.1,0-0.1,0c-0.6,0-1-0.5-1-1c0,0,0,0,0-0.1
		c0-0.4,0-0.7,0-1.1c0-0.5,0.4-1,0.9-1.1c0.2,0,0.4-0.3,0.4-0.5c0-0.1,0-0.1-0.1-0.2C8,5.5,8,4.9,8.4,4.6C8.7,4.3,9,4,9.3,3.7
		c0.4-0.4,1-0.4,1.4-0.1c0.2,0.1,0.5,0.1,0.6-0.1c0-0.1,0.1-0.1,0.1-0.2c0-0.5,0.5-0.9,1-0.9c0.4,0,0.9,0,1.3,0c0.5,0,0.9,0.4,1,0.9
		c0,0.3,0.2,0.5,0.5,0.5c0.1,0,0.1,0,0.2-0.1c0.4-0.4,1.1-0.3,1.5,0.1C17,4,17.3,4.3,17.6,4.5c0.4,0.4,0.4,1,0.1,1.4
		c-0.1,0.2-0.1,0.5,0.1,0.6c0.1,0,0.1,0.1,0.2,0.1c0.5,0.1,0.9,0.5,0.9,1.1c0,0.4,0,0.8,0,1.2c0,0.5-0.4,1-0.9,1
		c-0.1,0-0.3,0.1-0.3,0.3c-0.1,0.2-0.1,0.3,0,0.5c0.4,0.4,0.3,1-0.1,1.4c-0.3,0.3-0.6,0.6-0.9,0.9C16.5,13.1,16.3,13.2,16,13.2
		L16,13.2z M17,5.3C17,5.2,17,5.2,17,5.1c-0.3-0.3-0.5-0.5-0.8-0.8c-0.1-0.1-0.2-0.1-0.3,0C15.2,4.7,14.4,4.6,14,4
		c-0.1-0.1-0.2-0.3-0.2-0.5c0-0.1-0.1-0.2-0.2-0.2c0,0,0,0-0.1,0c-0.4,0-0.7,0-1.1,0c-0.2,0-0.2,0.1-0.2,0.2
		c-0.1,0.7-0.8,1.2-1.5,1.1c-0.2,0-0.4-0.1-0.5-0.2c-0.1-0.1-0.2-0.1-0.3,0C9.6,4.6,9.3,4.8,9.1,5.1c-0.1,0.1-0.1,0.2,0,0.4
		c0.4,0.6,0.2,1.4-0.4,1.8C8.5,7.4,8.4,7.5,8.2,7.5C8,7.5,8,7.6,8,7.8c0,0.3,0,0.7,0,1C8,9,8,9.1,8.2,9.1c0.1,0,0.3,0,0.4,0.1
		C8.9,9.4,9.1,9.7,9.2,10c0.2,0.4,0.1,0.8-0.2,1.1c-0.1,0.1-0.1,0.2,0,0.3c0,0,0,0,0,0c0.3,0.2,0.5,0.5,0.8,0.8
		c0.1,0.1,0.2,0.1,0.3,0.1c0,0,0,0,0,0c0.1-0.1,0.2-0.2,0.4-0.2c0.3-0.1,0.7,0,1,0.1c0.4,0.1,0.7,0.5,0.7,0.9c0,0.2,0.1,0.3,0.3,0.2
		c0.3,0,0.7,0,1,0c0.2,0,0.3-0.1,0.3-0.2c0.2-0.7,0.9-1.2,1.6-1c0.2,0,0.3,0.1,0.5,0.2c0.1,0.1,0.2,0.1,0.4,0
		c0.2-0.2,0.5-0.5,0.7-0.7c0.1-0.1,0.1-0.2,0.1-0.3c0,0,0,0-0.1-0.1c-0.2-0.3-0.3-0.6-0.2-1c0.2-0.6,0.4-1,1.1-1.1
		c0.1,0,0.2-0.1,0.2-0.2c0-0.4,0-0.7,0-1.1c0-0.1-0.1-0.2-0.2-0.2c-0.7-0.1-1.2-0.9-1-1.6c0-0.2,0.1-0.3,0.2-0.5
		C17,5.4,17,5.3,17,5.3z"/>
	<path class="st0" d="M15.6,7.9c0,1.3-1.1,2.3-2.3,2.3C12,10.2,11,9.2,11,7.9c0-1.3,1.1-2.3,2.3-2.3C14.6,5.6,15.6,6.6,15.6,7.9
		C15.6,7.9,15.6,7.9,15.6,7.9z M14.7,7.9c0-0.8-0.7-1.5-1.5-1.5c-0.8,0-1.5,0.7-1.5,1.5c0,0,0,0,0,0c0,0.8,0.7,1.5,1.5,1.5
		c0,0,0,0,0,0C14.1,9.4,14.7,8.7,14.7,7.9C14.7,7.9,14.7,7.9,14.7,7.9z"/>
</g>
</svg>
