<svg xmlns="http://www.w3.org/2000/svg" width="20.263" height="20.196" viewBox="0 0 20.263 20.196"><defs><style>.a{fill:#003265;}</style></defs><g transform="translate(0 -0.85)"><g transform="translate(0 0.85)"><path class="a" d="M10.1,19.363H2.524a.842.842,0,0,1-.841-.841V3.375a.842.842,0,0,1,.841-.841H10.1A.842.842,0,0,0,10.1.85H2.524A2.528,2.528,0,0,0,0,3.375V18.521a2.528,2.528,0,0,0,2.524,2.524H10.1a.841.841,0,0,0,0-1.683Z" transform="translate(0 -0.85)"/></g><g transform="translate(6.732 5.058)"><path class="a" d="M183.38,112.456l-5.116-5.049a.841.841,0,0,0-1.181,1.2l3.656,3.608h-9.8a.841.841,0,0,0,0,1.683h9.8l-3.656,3.608a.841.841,0,1,0,1.181,1.2l5.116-5.049a.841.841,0,0,0,0-1.2Z" transform="translate(-170.1 -107.165)"/></g></g></svg>