<?xml version="1.0" encoding="utf-8"?>
<!-- Generator: Adobe Illustrator 22.0.1, SVG Export Plug-In . SVG Version: 6.00 Build 0)  -->
<svg version="1.1" id="Layer_1" xmlns="http://www.w3.org/2000/svg" xmlns:xlink="http://www.w3.org/1999/xlink" x="0px" y="0px"
	 viewBox="0 0 23.6 23.6" style="enable-background:new 0 0 23.6 23.6;" xml:space="preserve">
<style type="text/css">
	.st0{fill:#FFFFFF;}
</style>
<path class="st0" d="M23.6,16c0-3.4-2.3-6.4-5.6-7.4c-0.2-5-4.4-8.8-9.4-8.6S-0.2,4.4,0,9.4c0.1,1.5,0.5,2.9,1.2,4.2L0,18l4.4-1.2
	C5.7,17.5,7.1,18,8.6,18c1.1,4.1,5.3,6.4,9.4,5.3c0.6-0.2,1.3-0.4,1.8-0.8l3.7,1l-1-3.7C23.2,18.7,23.6,17.3,23.6,16z M4.7,15.3
	L2,16l0.7-2.6l-0.2-0.3C0.3,9.6,1.4,4.9,4.9,2.6s8.3-1.2,10.5,2.3s1.2,8.3-2.3,10.5c-2.5,1.6-5.7,1.6-8.2,0L4.7,15.3z M21.6,21.6
	l-2-0.5l-0.3,0.2c-2.9,1.9-6.8,1.1-8.6-1.8c-0.3-0.4-0.5-0.9-0.7-1.4c4.2-0.5,7.4-3.8,7.9-7.9c3.3,1.1,5,4.6,3.9,7.9
	c-0.2,0.5-0.4,1-0.7,1.4l-0.2,0.3L21.6,21.6z"/>
<path class="st0" d="M8.3,12.5h1.4v1.4H8.3V12.5z"/>
<path class="st0" d="M10.5,6.9c0,0.4-0.2,0.8-0.5,1L8.3,9.5v1.7h1.4v-1.1L11,9c1.2-1.1,1.2-2.9,0.2-4c-1.1-1.2-2.9-1.2-4-0.2
	C6.5,5.4,6.2,6.1,6.2,6.9h1.4c0-0.8,0.6-1.4,1.4-1.4C9.8,5.5,10.5,6.2,10.5,6.9C10.5,6.9,10.5,6.9,10.5,6.9L10.5,6.9z"/>
</svg>
