<svg xmlns="http://www.w3.org/2000/svg" width="23.613" height="23.613" viewBox="0 0 23.613 23.613"><defs><style>.a{fill:#003265;}</style></defs><path class="a" d="M23.613,15.98a7.65,7.65,0,0,0-5.589-7.355A9.016,9.016,0,1,0,1.25,13.6L.033,18l4.4-1.217a8.983,8.983,0,0,0,4.192,1.241,7.635,7.635,0,0,0,11.239,4.529L23.58,23.58l-1.028-3.716A7.605,7.605,0,0,0,23.613,15.98ZM4.652,15.286l-2.634.729.729-2.634-.166-.26a7.63,7.63,0,1,1,2.331,2.331ZM21.6,21.6l-1.955-.541-.261.17a6.251,6.251,0,0,1-9.324-3.252,9.033,9.033,0,0,0,7.917-7.917,6.252,6.252,0,0,1,3.252,9.324l-.17.261Zm0,0"/><path class="a" d="M180.5,271h1.42v1.42H180.5Zm0,0" transform="translate(-172.189 -258.522)"/><path class="a" d="M139.759,92.84a1.405,1.405,0,0,1-.462,1.048l-1.668,1.526v1.732h1.42V96.039l1.206-1.1a2.84,2.84,0,1,0-4.756-2.1h1.42a1.42,1.42,0,1,1,2.84,0Zm0,0" transform="translate(-129.301 -85.895)"/></svg>