<svg xmlns="http://www.w3.org/2000/svg" width="16.278" height="16.192" viewBox="0 0 16.278 16.192"><defs><style>.a{fill:#ff5242;}</style></defs><path class="a" d="M12.825,27.592a.633.633,0,0,1-.517-.172.646.646,0,0,1,0-1.034l.345-.345,1.206-4.651,9.474-9.474a2.1,2.1,0,0,1,2.756,0l1.723,1.723a2.093,2.093,0,0,1,0,2.756l-9.474,9.474-4.651,1.206-.345.345A.633.633,0,0,1,12.825,27.592ZM14.2,25.7l2.584-.861-1.895-1.723Zm1.378-3.962,2.584,2.412,6.2-6.2-2.584-2.412Zm9.3-8.957c-.172,0-.345,0-.345.172l-1.723,1.723L25.4,17.084l1.55-1.723c.172-.172.172-.172.172-.345s0-.345-.172-.345L25.228,12.95A.533.533,0,0,0,24.883,12.778Z" transform="translate(-12.05 -11.4)"/></svg>