<svg xmlns="http://www.w3.org/2000/svg" width="20.171" height="21.014" viewBox="0 0 20.171 21.014"><defs><style>.a{fill:#003265;}</style></defs><g transform="translate(-43.224 -80.2)"><g transform="translate(43.224 80.2)"><g transform="translate(2.621 6.417)"><path class="a" d="M217.641,344.941v10.026c0,.443,0,.886,0,1.328a1.45,1.45,0,0,1-.012.178c.012-.085.024-.173.034-.258a1.388,1.388,0,0,1-.083.314c.032-.078.066-.156.1-.234a1.453,1.453,0,0,1-.175.3l.153-.2a1.392,1.392,0,0,1-.224.224l.2-.153a1.451,1.451,0,0,1-.3.175l.234-.1a1.3,1.3,0,0,1-.314.083c.085-.012.173-.024.258-.034a3.342,3.342,0,0,1-.414.012H208.1c-.411,0-.822,0-1.234,0a1.486,1.486,0,0,1-.178-.012c.085.012.173.024.258.034a1.388,1.388,0,0,1-.314-.083l.234.1a1.451,1.451,0,0,1-.3-.175l.2.153a1.391,1.391,0,0,1-.224-.224l.153.2a1.453,1.453,0,0,1-.175-.3c.032.078.066.156.1.234a1.3,1.3,0,0,1-.083-.314c.012.085.024.173.034.258a3.7,3.7,0,0,1-.012-.436v-9.676c0-.467.007-.934,0-1.4v-.019a.973.973,0,1,0-1.946,0V356.3a2.288,2.288,0,0,0,1.122,1.951,3.025,3.025,0,0,0,1.62.307h9.927a2.258,2.258,0,0,0,2.316-2.26c0-.275,0-.55,0-.825V344.938a.972.972,0,1,0-1.944,0Z" transform="translate(-204.6 -343.964)"/></g><g transform="translate(0 3.109)"><path class="a" d="M116.064,208H97.838a.973.973,0,1,0,0,1.946h18.223a.973.973,0,0,0,0-1.946Z" transform="translate(-96.864 -208)"/></g><g transform="translate(5.31)"><path class="a" d="M317.044,84.283V82.159c0-.112,0-.226,0-.338-.012.085-.024.173-.034.258a.685.685,0,0,1,.041-.158c-.032.078-.066.156-.1.234a.8.8,0,0,1,.1-.17l-.153.2a.968.968,0,0,1,.141-.141l-.2.153a.955.955,0,0,1,.2-.119l-.234.1a1.069,1.069,0,0,1,.2-.054c-.085.012-.173.024-.258.034a5.786,5.786,0,0,1,.681-.007h4.825a7.216,7.216,0,0,1,.827.007c-.085-.012-.173-.024-.258-.034a.815.815,0,0,1,.151.041l-.234-.1a.674.674,0,0,1,.156.092l-.2-.153a.889.889,0,0,1,.107.107l-.153-.2a.937.937,0,0,1,.095.158c-.032-.078-.066-.156-.1-.234a.93.93,0,0,1,.058.214c-.012-.085-.024-.173-.034-.258a8.612,8.612,0,0,1,0,.869v1.628a.973.973,0,0,0,1.946,0c0-.8.015-1.6,0-2.4a1.676,1.676,0,0,0-1.285-1.65,2.785,2.785,0,0,0-.489-.041h-5.978a1.819,1.819,0,0,0-1.314.555,1.726,1.726,0,0,0-.472,1.136v2.4a.984.984,0,0,0,.973.973,1,1,0,0,0,.971-.978Z" transform="translate(-315.1 -80.2)"/></g><g transform="translate(6.997 6.42)"><path class="a" d="M384.47,345.038v7.71c0,.355-.007.71,0,1.066v.015a.973.973,0,0,0,1.946,0v-7.71c0-.355.007-.71,0-1.066v-.015a.973.973,0,0,0-1.946,0Z" transform="translate(-384.467 -344.064)"/></g><g transform="translate(11.277 6.42)"><path class="a" d="M560.37,345.038v7.71c0,.355-.007.71,0,1.066v.015a.973.973,0,0,0,1.946,0v-7.71c0-.355.007-.71,0-1.066v-.015a.973.973,0,0,0-1.946,0Z" transform="translate(-560.367 -344.064)"/></g></g></g></svg>