<svg xmlns="http://www.w3.org/2000/svg" width="26.208" height="16.704" viewBox="0 0 26.208 16.704"><defs><style>.a{fill:#003265;}</style></defs><g transform="translate(0 -92.835)"><g transform="translate(0 92.835)"><g transform="translate(0 0)"><path class="a" d="M26.042,100.677c-.234-.32-5.813-7.842-12.938-7.842S.4,100.357.166,100.677a.865.865,0,0,0,0,1.02c.234.32,5.813,7.842,12.938,7.842s12.7-7.522,12.938-7.842A.864.864,0,0,0,26.042,100.677ZM13.1,107.811c-5.248,0-9.794-4.993-11.14-6.625,1.344-1.634,5.88-6.624,11.14-6.624s9.793,4.992,11.14,6.625C22.9,102.821,18.364,107.811,13.1,107.811Z" transform="translate(0 -92.835)"/></g></g><g transform="translate(7.92 96.003)"><g transform="translate(0 0)"><path class="a" d="M159.906,154.725a5.184,5.184,0,1,0,5.184,5.184A5.19,5.19,0,0,0,159.906,154.725Zm0,8.64a3.456,3.456,0,1,1,3.456-3.456A3.46,3.46,0,0,1,159.906,163.365Z" transform="translate(-154.722 -154.725)"/></g></g></g></svg>