<svg xmlns="http://www.w3.org/2000/svg" xmlns:xlink="http://www.w3.org/1999/xlink" width="70" height="70" viewBox="0 0 70 70"><defs><style>.a{fill:#ff5242;}.b{fill:none;}.c{fill:#fff;}.d{filter:url(#a);}</style><filter id="a" x="0" y="0" width="70" height="70" filterUnits="userSpaceOnUse"><feOffset dy="3" input="SourceAlpha"/><feGaussianBlur stdDeviation="3" result="b"/><feFlood flood-opacity="0.161"/><feComposite operator="in" in2="b"/><feComposite in="SourceGraphic"/></filter></defs><g transform="translate(-1076.65 -749.65)"><g class="d" transform="matrix(1, 0, 0, 1, 1076.65, 749.65)"><circle class="a" cx="26" cy="26" r="26" transform="translate(9 6)"/></g><g transform="translate(1100.428 768.825)"><rect class="b" width="25" height="26" transform="translate(0.222 -0.175)"/><path class="c" d="M17.269,7.517.895.056A.639.639,0,0,0,.141.23.612.612,0,0,0,.126.994L5.511,8.082.126,15.17a.614.614,0,0,0,.014.764.635.635,0,0,0,.753.174L17.268,8.647a.619.619,0,0,0,0-1.129Z" transform="translate(0 12.802) rotate(-45)"/></g></g></svg>