<svg xmlns="http://www.w3.org/2000/svg" width="20.033" height="20.033" viewBox="0 0 20.033 20.033"><defs><style>.a{fill:#003265;}</style></defs><path class="a" d="M65.587,68.678h3.13a.587.587,0,0,0,.587-.587v-2.5A.587.587,0,0,0,68.717,65h-3.13a.587.587,0,0,0-.587.587v2.5A.587.587,0,0,0,65.587,68.678Zm.587-2.5H68.13V67.5H66.174Z" transform="translate(-62.457 -62.457)"/><path class="a" d="M209.587,68.678h3.13a.587.587,0,0,0,.587-.587v-2.5a.587.587,0,0,0-.587-.587h-3.13a.587.587,0,0,0-.587.587v2.5A.587.587,0,0,0,209.587,68.678Zm.587-2.5h1.956V67.5h-1.956Z" transform="translate(-200.823 -62.457)"/><path class="a" d="M209.587,196.678h3.13a.587.587,0,0,0,.587-.587v-2.5a.587.587,0,0,0-.587-.587h-3.13a.587.587,0,0,0-.587.587v2.5A.587.587,0,0,0,209.587,196.678Zm.587-2.5h1.956v1.33h-1.956Z" transform="translate(-200.823 -185.449)"/><path class="a" d="M65.587,196.678h3.13a.587.587,0,0,0,.587-.587v-2.5a.587.587,0,0,0-.587-.587h-3.13a.587.587,0,0,0-.587.587v2.5A.587.587,0,0,0,65.587,196.678Zm.587-2.5H68.13v1.33H66.174Z" transform="translate(-62.457 -185.449)"/><path class="a" d="M19.446,16.863a.587.587,0,0,0,.587-.587V11.894a1.878,1.878,0,0,0-3.756,0v4.382a.587.587,0,0,0,.587.587h.7v2H14.985V.587A.587.587,0,0,0,14.4,0H.587A.587.587,0,0,0,0,.587V19.446a.587.587,0,0,0,.587.587H19.446a.587.587,0,1,0,0-1.174h-.7v-2ZM1.174,1.174H13.812V18.859h-1.33v-1.33a.587.587,0,0,0-1.174,0v1.33H9.977V15.651a2.465,2.465,0,1,0-4.93,0v3.208H3.717v-1.33a.587.587,0,1,0-1.174,0v1.33H1.174ZM6.221,18.859V15.651a1.291,1.291,0,0,1,2.582,0v3.208ZM17.45,11.894a.705.705,0,0,1,1.409,0v3.8H17.45Z"/></svg>