<svg xmlns="http://www.w3.org/2000/svg" width="20.363" height="22.629" viewBox="0 0 20.363 22.629"><defs><style>.a{fill:#003265;stroke:#003265;stroke-width:0.3px;}</style></defs><g transform="translate(-25.823 0.15)"><g transform="translate(25.973 0)"><path class="a" d="M45.379,8.381,43.943,6.944V4.1A1.747,1.747,0,0,0,42.2,2.353H39.354L37.131.128A.436.436,0,0,0,36.823,0H35.2a.436.436,0,0,0-.308.128L32.663,2.353H29.811A1.747,1.747,0,0,0,28.066,4.1V6.949L26.631,8.381a2.232,2.232,0,0,0-.658,1.589V20.082a2.238,2.238,0,0,0,.631,1.559l.027.029.029.026a2.238,2.238,0,0,0,1.559.632h5.822a.436.436,0,1,0,0-.872H28.22a1.365,1.365,0,0,1-.613-.145l5.141-5.141,1.674,1.673a2.232,2.232,0,0,0,1.588.658h0a2.232,2.232,0,0,0,1.588-.659l1.667-1.668L44.4,21.312a1.366,1.366,0,0,1-.613.145H37.967a.436.436,0,1,0,0,.872H43.79a2.238,2.238,0,0,0,1.559-.631l.029-.027c.01-.01.018-.019.027-.03a2.238,2.238,0,0,0,.631-1.559V9.969A2.232,2.232,0,0,0,45.379,8.381Zm-1.436-.2L44.762,9a1.385,1.385,0,0,1,.2.247l-1.015,1.016ZM35.378.872h1.264l1.479,1.48H33.9ZM27.248,9l.819-.817v2.078L27.052,9.245A1.383,1.383,0,0,1,27.248,9Zm-.258,11.7a1.365,1.365,0,0,1-.145-.613v-9.81l5.285,5.282Zm9.992-3.469a1.365,1.365,0,0,1-.972.4h0a1.365,1.365,0,0,1-.971-.4l-6.1-6.1V4.1a.873.873,0,0,1,.872-.872H42.2a.873.873,0,0,1,.872.872V7.069a.44.44,0,0,0,0,.1v3.96Zm8.182,2.856a1.365,1.365,0,0,1-.145.613l-5.137-5.137,5.282-5.285Z" transform="translate(-25.973 0)"/><path class="a" d="M246.409,491.942a.436.436,0,1,0,.308.128A.44.44,0,0,0,246.409,491.942Z" transform="translate(-236.378 -470.486)"/><path class="a" d="M165.674,115.883A4.123,4.123,0,0,0,161.556,120a4.179,4.179,0,0,0,4.174,4.174h2.651a.436.436,0,1,0,0-.872H165.73a3.306,3.306,0,0,1-3.3-3.3,3.246,3.246,0,0,1,6.492,0v.894a.623.623,0,0,1-1.246,0v-1.01a2.168,2.168,0,0,0-2.166-2.166,2.277,2.277,0,0,0,0,4.554h.694a.436.436,0,1,0,0-.872h-.694a1.4,1.4,0,0,1,0-2.81,1.3,1.3,0,0,1,1.293,1.293v1.01a1.5,1.5,0,0,0,2.991,0V120A4.123,4.123,0,0,0,165.674,115.883Z" transform="translate(-155.642 -110.829)"/></g></g></svg>