<svg xmlns="http://www.w3.org/2000/svg" width="20.213" height="20.212" viewBox="0 0 20.213 20.212"><defs><style>.a{fill:#003265;}</style></defs><g transform="translate(0 -0.011)"><g transform="translate(0 0.011)"><path class="a" d="M17.408,3.121A10.1,10.1,0,1,0,3.11,17.388c.006.006.008.014.014.019.058.056.122.1.181.158.162.144.325.294.5.433.092.072.187.144.281.211.162.121.323.241.492.352.115.072.233.144.351.216.156.094.311.188.472.274.136.072.276.134.414.2s.3.144.456.209.311.115.468.172.293.108.444.154c.17.051.345.091.518.133.144.035.284.076.433.1.2.04.4.065.6.092.125.017.247.042.373.054.331.032.664.051,1,.051s.67-.018,1-.051c.126-.012.248-.037.373-.054.2-.027.4-.053.6-.092.144-.029.289-.072.433-.1.173-.043.348-.082.518-.133.151-.046.3-.1.444-.154s.315-.108.468-.172.3-.138.456-.209.278-.128.414-.2c.161-.086.316-.18.472-.274.118-.072.236-.138.351-.216.169-.111.331-.232.492-.352.094-.072.189-.137.281-.211.171-.137.333-.283.5-.433.059-.054.123-.1.181-.158.006-.005.008-.014.014-.019A10.091,10.091,0,0,0,17.408,3.121ZM15.786,16.632c-.131.115-.267.225-.4.331-.081.062-.162.123-.245.183-.131.095-.263.184-.4.27-.1.063-.2.123-.3.183q-.191.108-.387.216c-.115.059-.233.115-.351.17s-.249.113-.377.165-.263.1-.4.144-.244.085-.367.122c-.144.043-.3.079-.445.115-.117.027-.232.058-.351.082-.171.033-.346.056-.521.08-.1.013-.2.031-.3.041-.277.027-.558.043-.841.043s-.564-.016-.841-.043c-.1-.01-.2-.028-.3-.041-.175-.024-.35-.047-.521-.08-.118-.023-.234-.054-.351-.082-.149-.036-.3-.072-.445-.115-.123-.037-.245-.08-.367-.122s-.267-.093-.4-.144-.253-.108-.377-.165-.236-.11-.351-.17c-.131-.068-.26-.139-.387-.216-.1-.059-.2-.12-.3-.183-.135-.086-.268-.175-.4-.27-.083-.059-.164-.121-.245-.183-.137-.106-.273-.216-.4-.331-.032-.024-.061-.054-.092-.082a5.79,5.79,0,0,1,3.935-5.409,4.279,4.279,0,0,0,3.676,0,5.79,5.79,0,0,1,3.935,5.409C15.846,16.578,15.817,16.606,15.786,16.632ZM7.587,5.8a2.887,2.887,0,1,1,3.931,3.931.015.015,0,0,0-.012,0,3.058,3.058,0,0,1-.6.255c-.038.011-.072.025-.112.035-.072.019-.148.032-.222.045a2.923,2.923,0,0,1-.424.043h-.082a2.923,2.923,0,0,1-.424-.043c-.072-.013-.149-.026-.222-.045-.038-.009-.072-.024-.112-.035a3.055,3.055,0,0,1-.6-.255l-.013,0A2.887,2.887,0,0,1,7.587,5.8Zm9.57,9.323h0a7.252,7.252,0,0,0-3.864-4.974,4.33,4.33,0,1,0-6.379,0A7.253,7.253,0,0,0,3.05,15.12a8.66,8.66,0,1,1,14.107,0Z" transform="translate(0 -0.011)"/></g></g></svg>