<svg xmlns="http://www.w3.org/2000/svg" xmlns:xlink="http://www.w3.org/1999/xlink" width="200" height="46" viewBox="0 0 200 46">
  <defs>
    <clipPath id="clip-Black_logo_200x46">
      <rect width="200" height="46"/>
    </clipPath>
  </defs>
  <g id="Black_logo_200x46" data-name="Black logo 200x46" clip-path="url(#clip-Black_logo_200x46)">
    <rect width="200" height="46" fill="#fff"/>
    <g id="Group_1834" data-name="Group 1834" transform="translate(-1246.135 938.586)">
      <g id="Group_1838" data-name="Group 1838" transform="translate(1248.135 -926.674)">
        <path id="Path_10467" data-name="Path 10467" d="M1252.745-885.1l2.043-2.448v-18.112h-3.034l-3.454,4.746h-.165v-5.541h18.232v5.541h-.15l-3.469-4.746h-3.034v18.112l2.028,2.448v.255h-9Z" transform="translate(-1248.135 907.524)" fill="#231f20"/>
        <path id="Path_10468" data-name="Path 10468" d="M1304.506-909.063v9.357a9.284,9.284,0,0,1,1.1-.962,7.527,7.527,0,0,1,1.277-.773,7.461,7.461,0,0,1,1.434-.511,6.645,6.645,0,0,1,1.6-.188,5.3,5.3,0,0,1,1.87.323,4.486,4.486,0,0,1,1.495.908,4.236,4.236,0,0,1,.99,1.4,4.351,4.351,0,0,1,.361,1.787v9.057h.015l1.833,1.862v.255h-8.2v-.255l1.757-1.862v-8.846a2.79,2.79,0,0,0-.661-1.937,2.512,2.512,0,0,0-1.967-.736,4.085,4.085,0,0,0-1.592.308,3.819,3.819,0,0,0-1.308.908v10.3l1.757,1.862v.255h-8.215v-.255l1.847-1.847v-17.6l-1.412-1.382v-.255l5.843-1.337Z" transform="translate(-1278.84 909.228)" fill="#231f20"/>
        <path id="Path_10469" data-name="Path 10469" d="M1362.457-878.568a9.325,9.325,0,0,1-1.209,1.539,7.033,7.033,0,0,1-1.51,1.171,7.114,7.114,0,0,1-1.862.743,9.291,9.291,0,0,1-2.253.255,7.742,7.742,0,0,1-3.026-.571,6.752,6.752,0,0,1-2.32-1.585,6.965,6.965,0,0,1-1.479-2.424,8.955,8.955,0,0,1-.518-3.109,9.5,9.5,0,0,1,.571-3.356,7.658,7.658,0,0,1,1.6-2.613,7.131,7.131,0,0,1,2.463-1.69,8.066,8.066,0,0,1,3.146-.6,7.088,7.088,0,0,1,2.861.548,6.259,6.259,0,0,1,2.125,1.495,6.382,6.382,0,0,1,1.321,2.215,8.038,8.038,0,0,1,.451,2.711h-9.807a1.26,1.26,0,0,0-.015.2v.211a7.319,7.319,0,0,0,1.4,4.52,4.426,4.426,0,0,0,3.62,1.592,6.824,6.824,0,0,0,1.3-.12,7.2,7.2,0,0,0,1.164-.323,6.6,6.6,0,0,0,.984-.458,5.013,5.013,0,0,0,.774-.541Zm-6.638-11.579a1.812,1.812,0,0,0-1.172.413,3.151,3.151,0,0,0-.856,1.172,7.788,7.788,0,0,0-.539,1.847,15.882,15.882,0,0,0-.226,2.44l5.242-.315a18.089,18.089,0,0,0-.151-2.523,6.6,6.6,0,0,0-.45-1.727,2.291,2.291,0,0,0-.759-.991,1.869,1.869,0,0,0-1.09-.316Z" transform="translate(-1309.742 897.897)" fill="#231f20"/>
      </g>
      <g id="Group_1839" data-name="Group 1839" transform="translate(1351.453 -926.141)">
        <path id="Path_10470" data-name="Path 10470" d="M1516.626-886.489l2.042-2.448v-16.2l-2.042-2.448v-.255h16.235v5.9h-.15l-3.6-5.106h-5.511v9.432h3.53l2.54-2.628h.269v6.323h-.269l-2.54-2.9h-3.53v7.884l2.343,2.448v.255h-9.312Z" transform="translate(-1516.625 907.845)" fill="#231f20"/>
        <path id="Path_10471" data-name="Path 10471" d="M1564.527-892.033v10.228a7.792,7.792,0,0,0,.1,1.3,3.318,3.318,0,0,0,.375,1.1,2.108,2.108,0,0,0,.729.758,2.165,2.165,0,0,0,1.164.285,4.433,4.433,0,0,0,.871-.09,5.583,5.583,0,0,0,.872-.248,4.6,4.6,0,0,0,.788-.383,2.785,2.785,0,0,0,.624-.511v-9.612l-1.682-1.4v-.255l6.128-1.339.165.165V-879.3l1.578,1.667v.181l-5.541,1.2-.541-2.568a6.939,6.939,0,0,1-1.044.894,9.286,9.286,0,0,1-1.4.826,9.885,9.885,0,0,1-1.622.608,6.3,6.3,0,0,1-1.712.241,5.115,5.115,0,0,1-1.667-.278,4.064,4.064,0,0,1-1.427-.834,4.081,4.081,0,0,1-.991-1.4,4.912,4.912,0,0,1-.376-2.005v-8.44l-1.682-1.4v-.255l6.143-1.337Z" transform="translate(-1542.224 898.22)" fill="#231f20"/>
        <path id="Path_10472" data-name="Path 10472" d="M1614.58-881.505a5.512,5.512,0,0,1-1.757-.269,4.081,4.081,0,0,1-1.42-.8,3.694,3.694,0,0,1-.953-1.329,4.652,4.652,0,0,1-.346-1.862v-10.725h-1.924v-.18l2.132-1.066,4.115-3h.269v3.679h4.566v.571H1614.7v10.723a2.674,2.674,0,0,0,.533,1.809,1.92,1.92,0,0,0,1.525.608,5.818,5.818,0,0,0,1.578-.2,4.018,4.018,0,0,0,1.216-.548l.15.226a6.281,6.281,0,0,1-.893.893,6.256,6.256,0,0,1-1.171.758,6.909,6.909,0,0,1-1.419.526,6.62,6.62,0,0,1-1.634.2Z" transform="translate(-1572.948 903.477)" fill="#231f20"/>
        <path id="Path_10473" data-name="Path 10473" d="M1643.562-892.03V-881.8a7.766,7.766,0,0,0,.105,1.3,3.271,3.271,0,0,0,.375,1.1,2.113,2.113,0,0,0,.728.758,2.17,2.17,0,0,0,1.164.285,4.441,4.441,0,0,0,.871-.09,5.561,5.561,0,0,0,.871-.248,4.6,4.6,0,0,0,.789-.383,2.78,2.78,0,0,0,.623-.511v-9.612l-1.682-1.4v-.255l6.128-1.337.165.166v12.737l1.578,1.667v.181l-5.541,1.2-.541-2.568a6.981,6.981,0,0,1-1.043.894,9.317,9.317,0,0,1-1.4.826,9.878,9.878,0,0,1-1.622.608,6.308,6.308,0,0,1-1.712.241,5.109,5.109,0,0,1-1.667-.278,4.076,4.076,0,0,1-1.427-.833,4.088,4.088,0,0,1-.991-1.4,4.925,4.925,0,0,1-.375-2.005v-8.44l-1.682-1.4v-.255l6.142-1.337Z" transform="translate(-1590.844 898.217)" fill="#231f20"/>
        <path id="Path_10474" data-name="Path 10474" d="M1694.23-892.125v2.7a4.527,4.527,0,0,1,.871-1.119,6.683,6.683,0,0,1,1.246-.939,6.854,6.854,0,0,1,1.442-.638,4.913,4.913,0,0,1,1.457-.233,4.821,4.821,0,0,1,.668.045,2.7,2.7,0,0,1,.654.181l-.8,4.806h-.241q-.285-.375-.608-.781a5.318,5.318,0,0,0-.72-.743,3.521,3.521,0,0,0-.885-.548,2.73,2.73,0,0,0-1.089-.21,2.252,2.252,0,0,0-1.186.308,3.031,3.031,0,0,0-.811.683v9.792l1.908,1.892v.225h-8.366v-.225l1.847-1.877v-10.5l-1.683-1.413v-.24l6.127-1.337Z" transform="translate(-1621.914 898.313)" fill="#231f20"/>
        <path id="Path_10475" data-name="Path 10475" d="M1736.29-879.956a9.3,9.3,0,0,1-1.209,1.539,7.036,7.036,0,0,1-1.509,1.172,7.148,7.148,0,0,1-1.863.743,9.278,9.278,0,0,1-2.253.255,7.743,7.743,0,0,1-3.027-.571,6.744,6.744,0,0,1-2.32-1.585,6.945,6.945,0,0,1-1.48-2.424,8.961,8.961,0,0,1-.518-3.109,9.508,9.508,0,0,1,.57-3.357,7.668,7.668,0,0,1,1.6-2.613,7.14,7.14,0,0,1,2.463-1.69,8.07,8.07,0,0,1,3.146-.6,7.082,7.082,0,0,1,2.861.548,6.262,6.262,0,0,1,2.125,1.495,6.388,6.388,0,0,1,1.322,2.215,8.052,8.052,0,0,1,.45,2.711h-9.807a1.362,1.362,0,0,0-.015.2v.21a7.321,7.321,0,0,0,1.4,4.52,4.426,4.426,0,0,0,3.619,1.592,6.831,6.831,0,0,0,1.3-.12,7.181,7.181,0,0,0,1.164-.323,6.621,6.621,0,0,0,.983-.458,5,5,0,0,0,.774-.539Zm-6.638-11.579a1.809,1.809,0,0,0-1.171.412,3.153,3.153,0,0,0-.856,1.172,7.791,7.791,0,0,0-.541,1.847,15.912,15.912,0,0,0-.225,2.44l5.241-.315a18.221,18.221,0,0,0-.15-2.523,6.6,6.6,0,0,0-.451-1.727,2.292,2.292,0,0,0-.758-.991A1.873,1.873,0,0,0,1729.652-891.534Z" transform="translate(-1643.038 898.218)" fill="#231f20"/>
      </g>
      <g id="Group_1840" data-name="Group 1840" transform="translate(1303.481 -937.586)">
        <path id="Path_10476" data-name="Path 10476" d="M1406.915-937.582h-14.953v14.953l7.476,7.475h14.953v-14.953Z" transform="translate(-1391.962 937.583)" fill="#f9a31a"/>
        <path id="Path_10477" data-name="Path 10477" d="M1429.342-937.584h-7.476l-7.477,7.477v14.951h-14.951l-7.476,7.476v14.953h14.953l7.476-7.477,7.476,7.477h14.953v-14.953l-7.478-7.476,7.476-7.477v-14.953Z" transform="translate(-1391.962 937.586)" fill="#f05856"/>
      </g>
    </g>
  </g>
</svg>
